<?xml version="1.0" encoding="UTF-8" standalone="no"?>
<svg width="1024px" height="1024px" viewBox="0 0 1024 1024" version="1.1" xmlns="http://www.w3.org/2000/svg" xmlns:xlink="http://www.w3.org/1999/xlink" xmlns:sketch="http://www.bohemiancoding.com/sketch/ns">
    <!-- Generator: Sketch 3.4 (15588) - http://www.bohemiancoding.com/sketch -->
    <title>Artboard 1</title>
    <desc>Created with Sketch.</desc>
    <defs></defs>
    <g id="Page-1" stroke="none" stroke-width="1" fill="none" fill-rule="evenodd" sketch:type="MSPage">
        <g id="Artboard-1" sketch:type="MSArtboardGroup" fill="#000000">
            <g id="align-indent" sketch:type="MSLayerGroup" transform="translate(30.000000, 139.000000)">
                <path d="M0.532596685,2.13038674 L0.532596685,151.257459 L961.337017,151.257459 L961.337017,2.13038674 L0.532596685,2.13038674 L0.532596685,2.13038674 Z M445.783425,445.250829 L963.467403,445.250829 L963.467403,296.123757 L445.783425,296.123757 L445.783425,445.250829 L445.783425,445.250829 Z M445.783425,743.504972 L963.467403,743.504972 L963.467403,594.377901 L445.783425,594.377901 L445.783425,743.504972 L445.783425,743.504972 Z M38.879558,300.38453 C23.9668508,293.99337 0.532596685,300.38453 0.532596685,321.688398 L0.532596685,715.809945 C0.532596685,730.722652 15.4453039,745.635359 38.879558,737.113812 C53.7922652,730.722652 260.439779,551.770166 283.874033,536.857459 C296.656354,524.075138 298.78674,502.771271 283.874033,492.119337 C262.570166,479.337017 51.6618785,313.166851 38.879558,300.38453 L38.879558,300.38453 Z" id="Shape" sketch:type="MSShapeGroup"></path>
            </g>
        </g>
    </g>
</svg>