<?xml version="1.0" encoding="UTF-8" standalone="no"?>
<svg width="1024px" height="1024px" viewBox="0 0 1024 1024" version="1.1" xmlns="http://www.w3.org/2000/svg" xmlns:xlink="http://www.w3.org/1999/xlink" xmlns:sketch="http://www.bohemiancoding.com/sketch/ns">
    <!-- Generator: Sketch 3.4 (15588) - http://www.bohemiancoding.com/sketch -->
    <title>Artboard 1</title>
    <desc>Created with Sketch.</desc>
    <defs></defs>
    <g id="Page-1" stroke="none" stroke-width="1" fill="none" fill-rule="evenodd" sketch:type="MSPage">
        <g id="Artboard-1" sketch:type="MSArtboardGroup" fill="#000000">
            <g id="arrows-alt" sketch:type="MSLayerGroup" transform="translate(30.000000, 30.000000)">
                <path d="M830.523077,200.215385 L964,333.692308 L964,66.7384615 L964,66.7384615 L964,66.7384615 L964,0 L897.261538,0 L897.261538,0 L897.261538,0 L630.307692,0 L763.784615,133.476923 L482,415.261538 L200.215385,133.476923 L333.692308,0 L66.7384615,0 L66.7384615,0 L66.7384615,0 L0,0 L0,66.7384615 L0,66.7384615 L0,66.7384615 L0,333.692308 L133.476923,200.215385 L415.261538,482 L140.892308,756.369231 L0,615.476923 L0,964 L348.523077,964 L207.630769,823.107692 L482,548.738462 L756.369231,823.107692 L615.476923,964 L964,964 L964,615.476923 L823.107692,756.369231 L548.738462,482 L830.523077,200.215385 Z" id="Shape" sketch:type="MSShapeGroup"></path>
            </g>
        </g>
    </g>
</svg>