<?xml version="1.0" encoding="utf-8"?>
<!-- Generator: Adobe Illustrator 19.1.1, SVG Export Plug-In . SVG Version: 6.00 Build 0)  -->
<svg version="1.1" id="레이어_1" xmlns="http://www.w3.org/2000/svg" xmlns:xlink="http://www.w3.org/1999/xlink" x="0px"
	 y="0px" viewBox="0 0 512 512" style="enable-background:new 0 0 512 512;" xml:space="preserve">
<g>
	<g>
		<polygon points="368.8,164.8 412,208 412,121.6 412,121.6 412,121.6 412,100 390.4,100 390.4,100 390.4,100 304,100 347.2,143.2 
			256,234.4 164.8,143.2 208,100 121.6,100 121.6,100 121.6,100 100,100 100,121.6 100,121.6 100,121.6 100,208 143.2,164.8 
			234.4,256 145.6,344.8 100,299.2 100,412 212.8,412 167.2,366.4 256,277.6 344.8,366.4 299.2,412 412,412 412,299.2 366.4,344.8 
			277.6,256 		"/>
	</g>
</g>
</svg>
