<?xml version="1.0" encoding="UTF-8" standalone="no"?>
<svg width="1024px" height="1024px" viewBox="0 0 1024 1024" version="1.1" xmlns="http://www.w3.org/2000/svg" xmlns:xlink="http://www.w3.org/1999/xlink" xmlns:sketch="http://www.bohemiancoding.com/sketch/ns">
    <!-- Generator: Sketch 3.4 (15588) - http://www.bohemiancoding.com/sketch -->
    <title>Artboard 1</title>
    <desc>Created with Sketch.</desc>
    <defs></defs>
    <g id="Page-1" stroke="none" stroke-width="1" fill="none" fill-rule="evenodd" sketch:type="MSPage">
        <g id="Artboard-1" sketch:type="MSArtboardGroup" fill="#000000">
            <g id="bold" sketch:type="MSLayerGroup" transform="translate(63.000000, 30.000000)">
                <path d="M790.837037,365.367901 C833.681481,329.664198 847.962963,286.819753 847.962963,229.693827 C847.962963,158.28642 819.4,101.160494 755.133333,65.4567901 C698.007407,22.6123457 583.755556,1.19012346 417.138272,1.19012346 L367.153086,1.19012346 L0.595061728,15.4716049 L0.595061728,94.0197531 C50.5802469,94.0197531 86.2839506,101.160494 100.565432,115.441975 C114.846914,129.723457 121.987654,165.42716 121.987654,208.271605 L121.987654,770.009877 C121.987654,812.854321 114.846914,848.558025 100.565432,862.839506 C86.2839506,877.120988 50.5802469,884.261728 0.595061728,884.261728 L0.595061728,962.809877 L502.82716,962.809877 C638.501235,962.809877 740.851852,941.387654 805.118519,898.54321 C862.244444,855.698765 897.948148,791.432099 897.948148,717.644444 C897.948148,646.237037 876.525926,596.251852 826.540741,553.407407 C776.555556,510.562963 712.288889,482 617.079012,467.718519 C690.866667,439.155556 747.992593,410.592593 790.837037,365.367901 L790.837037,365.367901 Z M374.293827,86.8790123 C424.279012,86.8790123 459.982716,94.0197531 488.545679,101.160494 C517.108642,108.301235 538.530864,122.582716 552.812346,151.145679 C567.093827,179.708642 574.234568,208.271605 574.234568,258.25679 C574.234568,315.382716 559.953086,358.22716 538.530864,379.649383 C509.967901,401.071605 474.264198,415.353086 424.279012,415.353086 L374.293827,415.353086 C374.293827,417.733333 374.293827,86.8790123 374.293827,86.8790123 L374.293827,86.8790123 Z M424.279012,503.422222 C474.264198,503.422222 509.967901,510.562963 538.530864,517.703704 C567.093827,524.844444 581.375309,546.266667 595.65679,574.82963 C609.938272,603.392593 617.079012,639.096296 617.079012,689.081481 C617.079012,753.348148 602.797531,796.192593 581.375309,831.896296 C559.953086,860.459259 524.249383,881.881481 481.404938,881.881481 C452.841975,881.881481 431.419753,874.740741 417.138272,867.6 C402.85679,860.459259 388.575309,846.177778 388.575309,831.896296 C381.434568,817.614815 381.434568,796.192593 381.434568,774.77037 L381.434568,503.422222 L424.279012,503.422222 L424.279012,503.422222 Z" id="Shape" sketch:type="MSShapeGroup"></path>
            </g>
        </g>
    </g>
</svg>