<?xml version="1.0" encoding="utf-8"?>
<!-- Generator: Adobe Illustrator 19.1.1, SVG Export Plug-In . SVG Version: 6.00 Build 0)  -->
<svg version="1.1" id="레이어_1" xmlns="http://www.w3.org/2000/svg" xmlns:xlink="http://www.w3.org/1999/xlink" x="0px"
	 y="0px" viewBox="0 0 512 512" style="enable-background:new 0 0 512 512;" xml:space="preserve">
<path d="M370.8,216.8c14.4-12,19.2-26.4,19.2-45.6c0-24-9.6-43.2-31.2-55.2c-19.2-14.4-57.6-21.6-113.6-21.6h-16.8l-123.2,4.8v26.4
	c16.8,0,28.8,2.4,33.6,7.2c4.8,4.8,7.2,16.8,7.2,31.2v188.8c0,14.4-2.4,26.4-7.2,31.2c-4.8,4.8-16.8,7.2-33.6,7.2v26.4H274
	c45.6,0,80-7.2,101.6-21.6c19.2-14.4,31.2-36,31.2-60.8c0-24-7.2-40.8-24-55.2c-16.8-14.4-38.4-24-70.4-28.8
	C337.2,241.6,356.4,232,370.8,216.8z M230.8,123.2c16.8,0,28.8,2.4,38.4,4.8s16.8,7.2,21.6,16.8c4.8,9.6,7.2,19.2,7.2,36
	c0,19.2-4.8,33.6-12,40.8c-9.6,7.2-21.6,12-38.4,12h-16.8C230.8,234.4,230.8,123.2,230.8,123.2z M247.6,263.2
	c16.8,0,28.8,2.4,38.4,4.8s14.4,9.6,19.2,19.2c4.8,9.6,7.2,21.6,7.2,38.4c0,21.6-4.8,36-12,48c-7.2,9.6-19.2,16.8-33.6,16.8
	c-9.6,0-16.8-2.4-21.6-4.8c-4.8-2.4-9.6-7.2-9.6-12c-2.4-4.8-2.4-12-2.4-19.2v-91.2C233.2,263.2,247.6,263.2,247.6,263.2z"/>
</svg>
