<?xml version="1.0" encoding="utf-8"?>
<!-- Generator: Adobe Illustrator 19.1.1, SVG Export Plug-In . SVG Version: 6.00 Build 0)  -->
<svg version="1.1" id="레이어_1" xmlns="http://www.w3.org/2000/svg" xmlns:xlink="http://www.w3.org/1999/xlink" x="0px"
	 y="0px" viewBox="0 0 512 512" style="enable-background:new 0 0 512 512;" xml:space="preserve">
<g>
	<g>
		<path d="M361.1,162.4h-68c-12,0-21.6,9.6-21.6,21.6s9.6,21.6,21.6,21.6h68c28,0,50.4,22.4,50.4,50.4s-22.4,50.4-50.4,50.4h-68
			c-12,0-21.6,9.6-21.6,21.6s9.6,21.6,21.6,21.6h68c52,0,93.6-41.6,93.6-93.6C454,204.8,412.4,162.4,361.1,162.4z M150.9,205.6h68
			c12,0,21.6-9.6,21.6-21.6s-9.6-21.6-21.6-21.6h-68c-52,0-93.6,41.6-93.6,93.6c0,51.2,41.6,93.6,93.6,93.6h68
			c12,0,21.6-9.6,21.6-21.6s-9.6-21.6-21.6-21.6h-68c-28,0-50.4-22.4-50.4-50.4C99.6,228.8,122.9,205.6,150.9,205.6z M213.2,71.2
			c-4.8-8.8-16.8-11.2-25.6-5.6c-8.8,4.8-12.8,16.8-8,25.6l24.8,40c4.8,8.8,17.6,10.4,25.6,5.6c8.8-4.8,12.8-16.8,7.2-24.8
			L213.2,71.2z M288.4,137.6c7.2,4.8,18.4,2.4,23.2-4.8L336.4,88c4-8,0.8-18.4-7.2-23.2s-18.4-2.4-22.4,5.6L282,115.2
			C277.2,122.4,280.4,132.8,288.4,137.6z M311.6,380.8c-4.8-8.8-17.6-10.4-25.6-5.6c-8.8,4.8-12.8,16.8-7.2,24.8l24.8,40
			c4.8,8.8,16.8,11.2,25.6,5.6c8.8-4.8,12.8-16.8,8-25.6L311.6,380.8z M227.6,374.4c-7.2-4.8-18.4-2.4-23.2,4.8L179.6,424
			c-4,8-0.8,18.4,7.2,23.2c7.2,4.8,18.4,2.4,22.4-5.6l24.8-44.8C238.9,389.6,234.9,379.2,227.6,374.4z"/>
	</g>
</g>
</svg>
