<?xml version="1.0" encoding="UTF-8" standalone="no"?>
<svg width="1024px" height="1024px" viewBox="0 0 1024 1024" version="1.1" xmlns="http://www.w3.org/2000/svg" xmlns:xlink="http://www.w3.org/1999/xlink" xmlns:sketch="http://www.bohemiancoding.com/sketch/ns">
    <!-- Generator: Sketch 3.4 (15588) - http://www.bohemiancoding.com/sketch -->
    <title>Artboard 1</title>
    <desc>Created with Sketch.</desc>
    <defs></defs>
    <g id="Page-1" stroke="none" stroke-width="1" fill="none" fill-rule="evenodd" sketch:type="MSPage">
        <g id="Artboard-1" sketch:type="MSArtboardGroup" fill="#000000">
            <g id="chain-broken" sketch:type="MSLayerGroup" transform="translate(30.000000, 42.000000)">
                <path d="M736.563819,243.179899 L571.860302,243.179899 C542.794975,243.179899 519.542714,266.432161 519.542714,295.497487 C519.542714,324.562814 542.794975,347.815075 571.860302,347.815075 L736.563819,347.815075 C804.382915,347.815075 858.638191,402.070352 858.638191,469.889447 C858.638191,537.708543 804.382915,591.963819 736.563819,591.963819 L571.860302,591.963819 C542.794975,591.963819 519.542714,615.21608 519.542714,644.281407 C519.542714,673.346734 542.794975,696.598995 571.860302,696.598995 L736.563819,696.598995 C862.513568,696.598995 963.273367,595.839196 963.273367,469.889447 C961.577889,345.877387 860.81809,243.179899 736.563819,243.179899 L736.563819,243.179899 Z M227.436181,347.815075 L392.139698,347.815075 C421.205025,347.815075 444.457286,324.562814 444.457286,295.497487 C444.457286,266.432161 421.205025,243.179899 392.139698,243.179899 L227.436181,243.179899 C101.486432,243.179899 0.726633166,343.939698 0.726633166,469.889447 C0.726633166,593.901508 101.486432,696.598995 227.436181,696.598995 L392.139698,696.598995 C421.205025,696.598995 444.457286,673.346734 444.457286,644.281407 C444.457286,615.21608 421.205025,591.963819 392.139698,591.963819 L227.436181,591.963819 C159.617085,591.963819 105.361809,537.708543 105.361809,469.889447 C103.18191,404.00804 159.617085,347.815075 227.436181,347.815075 L227.436181,347.815075 Z M378.333668,22.2834171 C366.707538,0.968844221 337.642211,-4.84422111 316.327638,8.71959799 C295.013065,20.3457286 285.324623,49.4110553 296.950754,70.7256281 L357.019095,167.61005 C368.645226,188.924623 399.648241,192.8 419.025126,181.173869 C440.339698,169.547739 450.028141,140.482412 436.464322,121.105528 L378.333668,22.2834171 L378.333668,22.2834171 Z M560.476382,183.111558 C577.915578,194.737688 605.043216,188.924623 616.669347,171.485427 L676.737688,62.9748744 C686.426131,43.5979899 678.675377,18.4080402 659.298492,6.78190955 C639.921608,-4.84422111 614.731658,0.968844221 605.043216,20.3457286 L544.974874,128.856281 C533.348744,146.295477 541.099497,171.485427 560.476382,183.111558 L560.476382,183.111558 Z M616.669347,772.168844 C605.043216,750.854271 574.040201,746.978894 554.663317,758.605025 C533.348744,770.231156 523.660302,799.296482 537.224121,818.673367 L597.292462,915.557789 C608.918593,936.872362 637.98392,942.685427 659.298492,929.121608 C680.613065,917.495477 690.301508,888.430151 678.675377,867.115578 L616.669347,772.168844 L616.669347,772.168844 Z M413.21206,756.667337 C395.772864,745.041206 368.645226,750.854271 357.019095,768.293467 L296.950754,876.80402 C287.262312,896.180905 295.013065,921.370854 314.38995,932.996985 C331.829146,944.623116 358.956784,938.81005 368.645226,919.433166 L428.713568,810.922613 C440.58191,793.483417 430.893467,768.293467 413.21206,756.667337 L413.21206,756.667337 Z" id="Shape" sketch:type="MSShapeGroup"></path>
            </g>
        </g>
    </g>
</svg>