<?xml version="1.0" encoding="UTF-8" standalone="no"?>
<svg width="1024px" height="1024px" viewBox="0 0 1024 1024" version="1.1" xmlns="http://www.w3.org/2000/svg" xmlns:xlink="http://www.w3.org/1999/xlink" xmlns:sketch="http://www.bohemiancoding.com/sketch/ns">
    <!-- Generator: Sketch 3.4 (15588) - http://www.bohemiancoding.com/sketch -->
    <title>Artboard 1</title>
    <desc>Created with Sketch.</desc>
    <defs></defs>
    <g id="Page-1" stroke="none" stroke-width="1" fill="none" fill-rule="evenodd" sketch:type="MSPage">
        <g id="Artboard-1" sketch:type="MSArtboardGroup" fill="#000000">
            <g id="circle" sketch:type="MSLayerGroup" transform="translate(30.000000, 30.000000)">
                <path d="M482,1.01473684 C216.138947,1.01473684 1.01473684,216.138947 1.01473684,482 C1.01473684,747.861053 216.138947,962.985263 482,962.985263 C747.861053,962.985263 962.985263,747.861053 962.985263,482 C962.985263,216.138947 747.861053,1.01473684 482,1.01473684 L482,1.01473684 Z M482,885.865263 C258.757895,885.865263 78.1347368,705.242105 78.1347368,482 C78.1347368,258.757895 258.757895,78.1347368 482,78.1347368 C705.242105,78.1347368 885.865263,258.757895 885.865263,482 C885.865263,705.242105 705.242105,885.865263 482,885.865263 L482,885.865263 Z" id="Shape" sketch:type="MSShapeGroup"></path>
            </g>
        </g>
    </g>
</svg>