<?xml version="1.0" encoding="utf-8"?>
<!-- Generator: Adobe Illustrator 19.1.1, SVG Export Plug-In . SVG Version: 6.00 Build 0)  -->
<svg version="1.1" id="레이어_1" xmlns="http://www.w3.org/2000/svg" xmlns:xlink="http://www.w3.org/1999/xlink" x="0px"
	 y="0px" viewBox="0 0 512 512" style="enable-background:new 0 0 512 512;" xml:space="preserve">
<g>
	<g>
		<path d="M277.6,255.7L404,129.3c0.8-0.8,0.8-2.4,0-4l-18.4-17.6c-0.8-0.8-1.6-0.8-1.6-0.8c-0.8,0-0.8,0-1.6,0.8L256,234.1
			L129.6,107.6c-0.8-0.8-1.6-0.8-1.6-0.8c-0.8,0-0.8,0-1.6,0.8L108,126.1c-0.8,0.8-0.8,2.4,0,4l126.4,126.4L108,382
			c-0.8,0.8-0.8,2.4,0,4l17.6,18.4c0.8,0.8,1.6,0.8,1.6,0.8s0.8,0,1.6-0.8L256,277.3l126.4,126.4c0.8,0.8,1.6,0.8,1.6,0.8
			s0.8,0,1.6-0.8l17.6-18.4c0.8-0.8,0.8-2.4,0-4L277.6,255.7z"/>
	</g>
</g>
</svg>
