<?xml version="1.0" encoding="UTF-8" standalone="no"?>
<svg width="1024px" height="1024px" viewBox="0 0 1024 1024" version="1.1" xmlns="http://www.w3.org/2000/svg" xmlns:xlink="http://www.w3.org/1999/xlink" xmlns:sketch="http://www.bohemiancoding.com/sketch/ns">
    <!-- Generator: Sketch 3.4 (15588) - http://www.bohemiancoding.com/sketch -->
    <title>Artboard 1</title>
    <desc>Created with Sketch.</desc>
    <defs></defs>
    <g id="Page-1" stroke="none" stroke-width="1" fill="none" fill-rule="evenodd" sketch:type="MSPage">
        <g id="Artboard-1" sketch:type="MSArtboardGroup" fill="#000000">
            <g id="close" sketch:type="MSLayerGroup" transform="translate(30.000000, 30.000000)">
                <path d="M548.194667,481.036 L954.36,74.8706667 C956.930667,72.3 956.930667,67.1586667 954.36,62.0173333 L895.234667,5.46266667 C892.664,2.892 890.093333,2.892 890.093333,2.892 C887.522667,2.892 887.522667,2.892 884.952,5.46266667 L478.786667,411.628 L72.6213333,5.14133333 C70.0506667,2.57066667 67.48,2.57066667 67.48,2.57066667 C64.9093333,2.57066667 64.9093333,2.57066667 62.3386667,5.14133333 L3.21333333,64.588 C0.642666667,67.1586667 0.642666667,72.3 3.21333333,77.4413333 L409.378667,483.606667 L3.21333333,886.88 C0.642666667,889.450667 0.642666667,894.592 3.21333333,899.733333 L59.768,958.858667 C62.3386667,961.429333 64.9093333,961.429333 64.9093333,961.429333 C64.9093333,961.429333 67.48,961.429333 70.0506667,958.858667 L478.786667,550.444 L884.952,956.609333 C887.522667,959.18 890.093333,959.18 890.093333,959.18 C890.093333,959.18 892.664,959.18 895.234667,956.609333 L951.789333,897.484 C954.36,894.913333 954.36,889.772 951.789333,884.630667 L548.194667,481.036 L548.194667,481.036 Z" id="Shape" sketch:type="MSShapeGroup"></path>
            </g>
        </g>
    </g>
</svg>