<?xml version="1.0" encoding="UTF-8" standalone="no"?>
<svg width="1024px" height="1024px" viewBox="0 0 1024 1024" version="1.1" xmlns="http://www.w3.org/2000/svg" xmlns:xlink="http://www.w3.org/1999/xlink" xmlns:sketch="http://www.bohemiancoding.com/sketch/ns">
    <!-- Generator: Sketch 3.4 (15588) - http://www.bohemiancoding.com/sketch -->
    <title>Artboard 1</title>
    <desc>Created with Sketch.</desc>
    <defs></defs>
    <g id="Page-1" stroke="none" stroke-width="1" fill="none" fill-rule="evenodd" sketch:type="MSPage">
        <g id="Artboard-1" sketch:type="MSArtboardGroup" fill="#000000">
            <g id="font" sketch:type="MSLayerGroup" transform="translate(30.000000, 30.000000)">
                <path d="M542.108235,706.555294 L569.327059,774.602353 L578.4,795.016471 C587.472941,813.162353 592.009412,826.771765 592.009412,838.112941 C592.009412,851.722353 587.472941,860.795294 576.131765,869.868235 C567.058824,878.941176 539.84,881.209412 496.743529,881.209412 L496.743529,958.329412 L964,958.329412 L964,881.209412 C941.317647,881.209412 918.635294,874.404706 895.952941,858.527059 C873.270588,844.917647 846.051765,799.552941 816.564706,729.237647 L521.694118,1.13411765 L440.037647,1.13411765 L149.703529,733.774118 C108.875294,833.576471 58.9741176,885.745882 -1.65514661e-14,885.745882 L-1.65514661e-14,962.865882 L310.748235,962.865882 L310.748235,885.745882 C276.724706,885.745882 251.774118,881.209412 235.896471,872.136471 C220.018824,863.063529 213.214118,847.185882 213.214118,824.503529 C213.214118,810.894118 220.018824,788.211765 233.628235,754.188235 L251.774118,706.555294 C251.490588,706.555294 542.108235,706.555294 542.108235,706.555294 L542.108235,706.555294 Z M392.121176,345.905882 L510.069412,627.167059 L280.977647,627.167059 L392.121176,345.905882 L392.121176,345.905882 Z" id="Shape" sketch:type="MSShapeGroup"></path>
            </g>
        </g>
    </g>
</svg>