<?xml version="1.0" encoding="utf-8"?>
<!-- Generator: Adobe Illustrator 19.1.1, SVG Export Plug-In . SVG Version: 6.00 Build 0)  -->
<svg version="1.1" id="레이어_1" xmlns="http://www.w3.org/2000/svg" xmlns:xlink="http://www.w3.org/1999/xlink" x="0px"
	 y="0px" viewBox="0 0 512 512" style="enable-background:new 0 0 512 512;" xml:space="preserve">
<path d="M277.2,335.2l9.6,24l3.2,7.2c3.2,6.4,4.8,11.2,4.8,15.2c0,4.8-1.6,8-5.6,11.2c-3.2,3.2-12.8,4-28,4V424H426v-27.2
	c-8,0-16-2.4-24-8c-8-4.8-17.6-20.8-28-45.6L270,86.4h-28.8L138.8,344.8c-14.4,35.2-32,53.6-52.8,53.6v27.2h109.6v-27.2
	c-12,0-20.8-1.6-26.4-4.8c-5.6-3.2-8-8.8-8-16.8c0-4.8,2.4-12.8,7.2-24.8l6.4-16.8C174.7,335.2,277.2,335.2,277.2,335.2z M224.3,208
	l41.6,99.2h-80.8L224.3,208z"/>
</svg>
