<?xml version="1.0" encoding="UTF-8" standalone="no"?>
<svg width="1024px" height="1024px" viewBox="0 0 1024 1024" version="1.1" xmlns="http://www.w3.org/2000/svg" xmlns:xlink="http://www.w3.org/1999/xlink" xmlns:sketch="http://www.bohemiancoding.com/sketch/ns">
    <!-- Generator: Sketch 3.4 (15588) - http://www.bohemiancoding.com/sketch -->
    <title>Artboard 1</title>
    <desc>Created with Sketch.</desc>
    <defs></defs>
    <g id="Page-1" stroke="none" stroke-width="1" fill="none" fill-rule="evenodd" sketch:type="MSPage">
        <g id="Artboard-1" sketch:type="MSArtboardGroup" fill="#000000">
            <g id="frame" sketch:type="MSLayerGroup" transform="translate(30.000000, 132.000000)">
                <g id="Page-1" sketch:type="MSShapeGroup">
                    <g id="Artboard-1">
                        <g id="frame">
                            <path d="M862.169014,-5.68434189e-14 L101.830986,-5.68434189e-14 C45.7107981,-5.68434189e-14 0.45258216,45.258216 0.45258216,101.378404 L0.45258216,658.959624 C0.45258216,715.079812 45.7107981,760.338028 101.830986,760.338028 L862.169014,760.338028 C918.289202,760.338028 963.547418,715.079812 963.547418,658.959624 L963.547418,101.378404 C963.547418,45.258216 918.289202,-5.68434189e-14 862.169014,-5.68434189e-14 L862.169014,-5.68434189e-14 L862.169014,-5.68434189e-14 Z M188.726761,50.6892019 L775.273239,50.6892019 C807.859155,50.6892019 842.255399,48.8788732 865.789671,56.1201878 L811.479812,110.430047 C809.669484,112.240376 809.669484,114.050704 807.859155,115.861033 C793.376526,106.80939 777.083568,103.188732 758.980282,103.188732 L203.20939,103.188732 C185.106103,103.188732 168.813146,108.619718 152.520188,115.861033 C152.520188,115.861033 152.520188,114.050704 150.709859,114.050704 L94.5896714,57.9305164 C121.744601,48.8788732 154.330516,50.6892019 188.726761,50.6892019 L188.726761,50.6892019 L188.726761,50.6892019 Z M150.709859,546.719249 L150.709859,197.325822 C150.709859,144.826291 190.537089,152.067606 243.03662,152.067606 L713.722066,152.067606 C766.221596,152.067606 809.669484,144.826291 809.669484,197.325822 L809.669484,548.529577 C809.669484,601.029108 766.221596,610.080751 713.722066,610.080751 L243.03662,610.080751 C190.537089,610.080751 150.709859,601.029108 150.709859,546.719249 L150.709859,546.719249 L150.709859,546.719249 Z M51.141784,114.050704 C51.141784,103.188732 52.9521127,94.1370892 56.57277,86.8957746 L116.313615,146.63662 L118.123944,146.63662 C109.0723,162.929577 101.830986,181.032864 101.830986,200.946479 L101.830986,555.770892 C101.830986,575.684507 107.261972,593.787793 118.123944,610.080751 C118.123944,610.080751 118.123944,610.080751 116.313615,610.080751 L63.8140845,662.580282 C54.7624413,644.476995 51.141784,619.132394 51.141784,582.925822 L51.141784,114.050704 L51.141784,114.050704 L51.141784,114.050704 L51.141784,114.050704 Z M775.273239,709.648826 L188.726761,709.648826 C150.709859,709.648826 121.744601,707.838498 100.020657,698.786854 L150.709859,648.097653 C150.709859,648.097653 150.709859,646.287324 152.520188,646.287324 C167.002817,655.338967 183.295775,658.959624 203.20939,658.959624 L760.79061,658.959624 C778.893897,658.959624 795.186854,653.528638 809.669484,646.287324 C811.479812,648.097653 811.479812,649.907981 813.290141,651.71831 L863.979343,702.407512 C842.255399,707.838498 813.290141,709.648826 775.273239,709.648826 L775.273239,709.648826 L775.273239,709.648826 Z M911.047887,584.73615 C911.047887,622.753052 907.42723,648.097653 900.185915,666.200939 L847.686385,615.511737 C845.876056,613.701408 845.876056,613.701408 844.065728,613.701408 C854.9277,597.408451 860.358685,579.305164 860.358685,559.391549 L860.358685,202.756808 C860.358685,182.843192 854.9277,162.929577 844.065728,148.446948 C845.876056,148.446948 845.876056,146.63662 847.686385,146.63662 L905.616901,88.7061033 C909.237559,95.9474178 911.047887,104.999061 911.047887,115.861033 L911.047887,584.73615 L911.047887,584.73615 L911.047887,584.73615 Z" id="Shape"></path>
                        </g>
                    </g>
                </g>
            </g>
        </g>
    </g>
</svg>