<?xml version="1.0" encoding="utf-8"?>
<!-- Generator: Adobe Illustrator 19.1.1, SVG Export Plug-In . SVG Version: 6.00 Build 0)  -->
<svg version="1.1" id="레이어_1" xmlns="http://www.w3.org/2000/svg" xmlns:xlink="http://www.w3.org/1999/xlink" x="0px"
	 y="0px" viewBox="0 0 512 512" style="enable-background:new 0 0 512 512;" xml:space="preserve">
<g>
	<g>
		<path d="M424,88H88c-24.8,0-44.8,20-44.8,44.8v246.4c0,24.8,20,44.8,44.8,44.8h336c24.8,0,44.8-20,44.8-44.8V132.8
			C468.8,108,448.8,88,424,88z M126.4,110.4h259.2c14.4,0,29.6-0.8,40,2.4l-24,24c-0.8,0.8-0.8,1.6-1.6,2.4
			c-6.4-4-13.6-5.6-21.6-5.6H132.8c-8,0-15.2,2.4-22.4,5.6c0,0,0-0.8-0.8-0.8l-24.8-24.8C96.8,109.6,111.2,110.4,126.4,110.4z
			 M109.6,329.6V175.2c0-23.2,17.6-20,40.8-20h208c23.2,0,42.4-3.2,42.4,20v155.2c0,23.2-19.2,27.2-42.4,27.2h-208
			C127.2,357.6,109.6,353.6,109.6,329.6z M65.6,138.4c0-4.8,0.8-8.8,2.4-12l26.4,26.4c0,0,0,0,0.8,0c-4,7.2-7.2,15.2-7.2,24v156.8
			c0,8.8,2.4,16.8,7.2,24c0,0,0,0-0.8,0l-23.2,23.2c-4-8-5.6-19.2-5.6-35.2V138.4L65.6,138.4z M385.6,401.6H126.4
			c-16.8,0-29.6-0.8-39.2-4.8l22.4-22.4c0,0,0-0.8,0.8-0.8c6.4,4,13.6,5.6,22.4,5.6h246.4c8,0,15.2-2.4,21.6-5.6
			c0.8,0.8,0.8,1.6,1.6,2.4l22.4,22.4C415.2,400.8,402.4,401.6,385.6,401.6z M445.6,346.4c0,16.8-1.6,28-4.8,36L417.6,360
			c-0.8-0.8-0.8-0.8-1.6-0.8c4.8-7.2,7.2-15.2,7.2-24V177.6c0-8.8-2.4-17.6-7.2-24c0.8,0,0.8-0.8,1.6-0.8l25.6-25.6
			c1.6,3.2,2.4,7.2,2.4,12V346.4z"/>
	</g>
</g>
</svg>
