<?xml version="1.0" encoding="UTF-8" standalone="no"?>
<svg width="1024px" height="1024px" viewBox="0 0 1024 1024" version="1.1" xmlns="http://www.w3.org/2000/svg" xmlns:xlink="http://www.w3.org/1999/xlink" xmlns:sketch="http://www.bohemiancoding.com/sketch/ns">
    <!-- Generator: Sketch 3.4 (15588) - http://www.bohemiancoding.com/sketch -->
    <title>Artboard 1</title>
    <desc>Created with Sketch.</desc>
    <defs></defs>
    <g id="Page-1" stroke="none" stroke-width="1" fill="none" fill-rule="evenodd" sketch:type="MSPage">
        <g id="Artboard-1" sketch:type="MSArtboardGroup" fill="#000000">
            <g id="italic" sketch:type="MSLayerGroup" transform="translate(197.000000, 30.000000)">
                <path d="M257.727273,9.18095238 L237.109091,75.7428571 C257.727273,75.7428571 273.763636,82.6285714 294.381818,89.5142857 C308.127273,96.4 321.872727,117.057143 321.872727,140.009524 C321.872727,153.780952 315,167.552381 308.127273,204.27619 L129.436364,791.857143 C122.563636,828.580952 108.818182,849.238095 92.7818182,869.895238 C79.0363636,890.552381 56.1272727,897.438095 21.7636364,897.438095 L1.14545455,961.704762 L395.181818,961.704762 L415.8,897.438095 C388.309091,897.438095 365.4,890.552381 344.781818,883.666667 C324.163636,876.780952 317.290909,856.12381 317.290909,833.171429 C317.290909,819.4 324.163636,796.447619 331.036364,768.904762 L509.727273,181.32381 C516.6,153.780952 523.472727,130.828571 530.345455,117.057143 C537.218182,103.285714 544.090909,96.4 557.836364,80.3333333 C571.581818,73.447619 585.327273,66.5619048 608.236364,66.5619048 L628.854545,2.2952381 L257.727273,2.2952381 L257.727273,9.18095238 L257.727273,9.18095238 Z" id="Shape" sketch:type="MSShapeGroup"></path>
            </g>
        </g>
    </g>
</svg>