<?xml version="1.0" encoding="utf-8"?>
<!-- Generator: Adobe Illustrator 19.1.1, SVG Export Plug-In . SVG Version: 6.00 Build 0)  -->
<svg version="1.1" id="레이어_1" xmlns="http://www.w3.org/2000/svg" xmlns:xlink="http://www.w3.org/1999/xlink" x="0px"
	 y="0px" viewBox="0 0 512 512" style="enable-background:new 0 0 512 512;" xml:space="preserve">
<path d="M236,91.2l-7.2,23.2c7.2,0,12.8,2.4,20,4.8c4.8,2.4,9.6,9.6,9.6,17.6c0,4.8-2.4,9.6-4.8,22.4L191.2,364
	c-2.4,12.8-7.2,20-12.8,27.2c-4.8,7.2-12.8,9.6-24.8,9.6l-7.2,22.4H284l7.2-22.4c-9.6,0-17.6-2.4-24.8-4.8
	c-7.2-2.4-9.6-9.6-9.6-17.6c0-4.8,2.4-12.8,4.8-22.4L324,151.2c2.4-9.6,4.8-17.6,7.2-22.4c2.4-4.8,4.8-7.2,9.6-12.8
	c4.8-2.4,9.6-4.8,17.6-4.8l7.2-22.4H236V91.2z"/>
</svg>
