<?xml version="1.0" encoding="UTF-8" standalone="no"?>
<svg width="1024px" height="1024px" viewBox="0 0 1024 1024" version="1.1" xmlns="http://www.w3.org/2000/svg" xmlns:xlink="http://www.w3.org/1999/xlink" xmlns:sketch="http://www.bohemiancoding.com/sketch/ns">
    <!-- Generator: Sketch 3.4 (15588) - http://www.bohemiancoding.com/sketch -->
    <title>Artboard 1</title>
    <desc>Created with Sketch.</desc>
    <defs></defs>
    <g id="Page-1" stroke="none" stroke-width="1" fill="none" fill-rule="evenodd" sketch:type="MSPage">
        <g id="Artboard-1" sketch:type="MSArtboardGroup" fill="#000000">
            <g id="link" sketch:type="MSLayerGroup" transform="translate(30.000000, 286.000000)">
                <path d="M737.572093,4.02772277 L572.571163,4.02772277 C543.875349,4.02772277 522.353488,27.2990099 522.353488,54.150495 C522.353488,81.0019802 545.668837,104.273267 572.571163,104.273267 L737.572093,104.273267 C805.724651,104.273267 861.322791,161.556436 861.322791,227.790099 C861.322791,294.023762 803.931163,351.306931 737.572093,351.306931 L572.571163,351.306931 C543.875349,351.306931 522.353488,374.578218 522.353488,401.429703 C522.353488,428.281188 545.668837,451.552475 572.571163,451.552475 L737.572093,451.552475 C861.322791,451.552475 963.551628,349.516832 963.551628,226 C963.551628,102.483168 863.116279,4.02772277 737.572093,4.02772277 L737.572093,4.02772277 Z M391.428837,347.726733 L226.427907,347.726733 C158.275349,347.726733 102.677209,290.443564 102.677209,224.209901 C102.677209,157.976238 160.068837,100.693069 226.427907,100.693069 L391.428837,100.693069 C420.124651,100.693069 441.646512,77.4217822 441.646512,50.570297 C441.646512,23.7188119 418.331163,0.447524752 391.428837,0.447524752 L226.427907,0.447524752 C102.677209,0.447524752 0.448372093,102.483168 0.448372093,226 C0.448372093,349.516832 102.677209,451.552475 226.427907,451.552475 L391.428837,451.552475 C420.124651,451.552475 441.646512,428.281188 441.646512,401.429703 C443.44,376.368317 420.124651,347.726733 391.428837,347.726733 L391.428837,347.726733 Z M301.754419,234.950495 C301.754419,263.592079 325.069767,285.073267 351.972093,285.073267 L617.408372,285.073267 C646.104186,285.073267 667.626047,261.80198 667.626047,234.950495 C667.626047,206.308911 644.310698,184.827723 617.408372,184.827723 L351.972093,184.827723 C325.069767,184.827723 301.754419,206.308911 301.754419,234.950495 L301.754419,234.950495 Z" id="Shape" sketch:type="MSShapeGroup"></path>
            </g>
        </g>
    </g>
</svg>