<?xml version="1.0" encoding="utf-8"?>
<!-- Generator: Adobe Illustrator 19.1.1, SVG Export Plug-In . SVG Version: 6.00 Build 0)  -->
<svg version="1.1" id="레이어_1" xmlns="http://www.w3.org/2000/svg" xmlns:xlink="http://www.w3.org/1999/xlink" x="0px"
	 y="0px" viewBox="0 0 512 512" style="enable-background:new 0 0 512 512;" xml:space="preserve">
<g>
	<g>
		<path d="M370,156.8h-73.6c-12.8,0-22.4,10.4-22.4,22.4s10.4,22.4,22.4,22.4H370c30.4,0,55.2,25.6,55.2,55.2S399.6,312,370,312
			h-73.6c-12.8,0-22.4,10.4-22.4,22.4s10.4,22.4,22.4,22.4H370c55.2,0,100.8-45.6,100.8-100.8S426,156.8,370,156.8z M215.6,310.4
			H142c-30.4,0-55.2-25.6-55.2-55.2S112.4,200,142,200h73.6c12.8,0,22.4-10.4,22.4-22.4s-10.4-22.4-22.4-22.4H142
			c-55.2,0-100.8,45.6-100.8,100.8S86.8,356.8,142,356.8h73.6c12.8,0,22.4-10.4,22.4-22.4C238.8,323.2,228.4,310.4,215.6,310.4z
			 M175.6,260c0,12.8,10.4,22.4,22.4,22.4h118.4c12.8,0,22.4-10.4,22.4-22.4c0-12.8-10.4-22.4-22.4-22.4H198
			C186,237.6,175.6,247.2,175.6,260z"/>
	</g>
</g>
</svg>
