<?xml version="1.0" encoding="utf-8"?>
<!-- Generator: Adobe Illustrator 19.1.1, SVG Export Plug-In . SVG Version: 6.00 Build 0)  -->
<svg version="1.1" id="레이어_1" xmlns="http://www.w3.org/2000/svg" xmlns:xlink="http://www.w3.org/1999/xlink" x="0px"
	 y="0px" viewBox="0 0 512 512" style="enable-background:new 0 0 512 512;" xml:space="preserve">
<g>
	<g>
		<path d="M429.9,106.9l-19.2-19.2l-48,48l19.2,19.2L429.9,106.9z M409.3,229.3v26.4H482v-26.4H409.3z M364.4,376.3l48,48l19.2-19.2
			l-48-48L364.4,376.3z M158,137.3l-48-48l-19.2,16l48,48L158,137.3z M264.4,35.7H238v73.6h26.4V35.7z M30,417.1l59.2,59.2
			L258,307.7l-59.2-59.2L30,417.1z M217.3,229.3l59.2,59.2l61.6-61.6l-59.2-59.2L217.3,229.3z"/>
	</g>
</g>
</svg>
