<?xml version="1.0" encoding="UTF-8" standalone="no"?>
<svg width="1024px" height="999px" viewBox="0 0 1024 999" version="1.1" xmlns="http://www.w3.org/2000/svg" xmlns:xlink="http://www.w3.org/1999/xlink" xmlns:sketch="http://www.bohemiancoding.com/sketch/ns">
    <!-- Generator: Sketch 3.4 (15588) - http://www.bohemiancoding.com/sketch -->
    <title>magic</title>
    <desc>Created with Sketch.</desc>
    <defs></defs>
    <g id="Page-1" stroke="none" stroke-width="1" fill="none" fill-rule="evenodd" sketch:type="MSPage">
        <g id="magic" sketch:type="MSLayerGroup" fill="#000000">
            <g id="Page-1" sketch:type="MSShapeGroup">
                <g id="Artboard-1">
                    <g id="magic">
                        <path d="M905.96954,161.883083 L862.472127,118.370562 L753.728597,227.151865 L797.226009,270.664386 L905.96954,161.883083 L905.96954,161.883083 L905.96954,161.883083 Z M859.300442,439.275404 L859.300442,499.105121 L1024.00158,499.105121 L1024.00158,439.275404 L859.300442,439.275404 L859.300442,439.275404 L859.300442,439.275404 Z M757.579931,772.418143 L866.323461,881.199445 L909.820874,837.686924 L801.077342,728.905622 L757.579931,772.418143 L757.579931,772.418143 L757.579931,772.418143 Z M289.982748,230.777908 L181.239218,121.996606 L137.741805,158.25704 L246.485336,267.038342 L289.982748,230.777908 L289.982748,230.777908 L289.982748,230.777908 Z M531.030908,0.524151684 L471.221966,0.524151684 L471.221966,167.322148 L531.030908,167.322148 L531.030908,0.524151684 L531.030908,0.524151684 L531.030908,0.524151684 Z M0,864.88225 L134.117021,999.045856 L516.531771,616.951531 L382.41475,482.787925 L0,864.88225 L0,864.88225 L0,864.88225 Z M424.326319,439.275404 L558.44334,573.43901 L697.997537,433.836339 L563.880516,299.672733 L424.326319,439.275404 L424.326319,439.275404 L424.326319,439.275404 Z" id="Shape"></path>
                    </g>
                </g>
            </g>
        </g>
    </g>
</svg>