<?xml version="1.0" encoding="UTF-8" standalone="no"?>
<svg width="1024px" height="1024px" viewBox="0 0 1024 1024" version="1.1" xmlns="http://www.w3.org/2000/svg" xmlns:xlink="http://www.w3.org/1999/xlink" xmlns:sketch="http://www.bohemiancoding.com/sketch/ns">
    <!-- Generator: Sketch 3.4 (15588) - http://www.bohemiancoding.com/sketch -->
    <title>Artboard 1</title>
    <desc>Created with Sketch.</desc>
    <defs></defs>
    <g id="Page-1" stroke="none" stroke-width="1" fill="none" fill-rule="evenodd" sketch:type="MSPage">
        <g id="Artboard-1" sketch:type="MSArtboardGroup" fill="#000000">
            <g id="orderedlist" sketch:type="MSLayerGroup" transform="translate(30.000000, 209.000000)">
                <path d="M312.127568,1.04310345 L312.127568,119.956897 L962.436757,119.956897 L962.436757,1.04310345 L312.127568,1.04310345 L312.127568,1.04310345 Z M962.176216,238.87069 L311.867027,238.87069 L311.867027,357.784483 L962.176216,357.784483 L962.176216,238.87069 L962.176216,238.87069 Z M312.127568,591.439655 L962.436757,591.439655 L962.436757,472.525862 L312.127568,472.525862 L312.127568,591.439655 L312.127568,591.439655 Z M76.5989189,255.299569 L128.707027,255.299569 L128.707027,7.04094828 L87.0205405,7.04094828 C80.7675676,42.5064655 51.587027,59.1961207 16.1535135,55.0237069 L16.1535135,90.4892241 L74.5145946,90.4892241 L76.5989189,255.299569 L76.5989189,255.299569 L76.5989189,255.299569 Z M176.646486,432.887931 C176.646486,384.905172 134.96,355.698276 93.2735135,355.698276 C34.9124324,355.698276 -0.521081081,397.422414 5.73189189,455.836207 L53.6713514,455.836207 C53.6713514,432.887931 66.1772973,397.422414 95.3578378,397.422414 C118.285405,397.422414 130.791351,409.939655 130.791351,432.887931 C130.791351,462.094828 101.610811,480.87069 78.6832432,491.301724 C36.9967568,520.508621 1.56324324,543.456897 1.56324324,603.956897 L184.983784,603.956897 L184.983784,562.232759 L64.092973,562.232759 C93.2735135,516.336207 176.646486,509.81681 176.646486,432.887931 L176.646486,432.887931 Z" id="Shape" sketch:type="MSShapeGroup"></path>
            </g>
        </g>
    </g>
</svg>