<?xml version="1.0" encoding="utf-8"?>
<!-- Generator: Adobe Illustrator 19.1.1, SVG Export Plug-In . SVG Version: 6.00 Build 0)  -->
<svg version="1.1" id="레이어_1" xmlns="http://www.w3.org/2000/svg" xmlns:xlink="http://www.w3.org/1999/xlink" x="0px"
	 y="0px" viewBox="0 0 512 512" style="enable-background:new 0 0 512 512;" xml:space="preserve">
<g>
	<g>
		<path d="M190.8,140.4v45.6h249.6v-45.6C440.3,140.4,190.8,140.4,190.8,140.4z M440.3,231.6H190.7v45.6h249.6V231.6z M190.8,366.8
			h249.6v-45.6H190.8V366.8z M100.4,237.9h20v-95.2h-16c-2.4,13.6-13.6,20-27.2,18.4v13.6h22.4L100.4,237.9L100.4,237.9z M138.8,306
			c0-18.4-16-29.6-32-29.6c-22.4,0-36,16-33.6,38.4h18.4c0-8.8,4.8-22.4,16-22.4c8.8,0,13.6,4.8,13.6,13.6c0,11.2-11.2,18.4-20,22.4
			c-16,11.2-29.6,20-29.6,43.2H142v-16H95.6C106.8,338,138.8,335.5,138.8,306z"/>
	</g>
</g>
</svg>
