<?xml version="1.0" encoding="utf-8"?>
<!-- Generator: Adobe Illustrator 19.1.1, SVG Export Plug-In . SVG Version: 6.00 Build 0)  -->
<svg version="1.1" id="레이어_1" xmlns="http://www.w3.org/2000/svg" xmlns:xlink="http://www.w3.org/1999/xlink" x="0px"
	 y="0px" viewBox="0 0 512 512" style="enable-background:new 0 0 512 512;" xml:space="preserve">
<g>
	<g>
		<path d="M346.4,228.8c16.8,0,32-14.4,32-29.6c0-16.8-14.4-29.6-32-29.6c-16.8,0-32,14.4-32,29.6
			C312,216.8,326.4,228.8,346.4,228.8z M60,96v320h392V96H60z M424,392H88V120h336V392z M143.2,364h195.2c29.6,0,39.2,4.8,24-16.8
			l-44-64c-14.4-21.6-36.8-21.6-48.8,2.4l-12,26.4l-46.4-66.4C194.4,224,172,226.4,160,248l-48,94.4
			C100.8,368.8,113.6,364,143.2,364z"/>
	</g>
</g>
</svg>
