<?xml version="1.0" encoding="utf-8"?>
<!-- Generator: Adobe Illustrator 19.1.1, SVG Export Plug-In . SVG Version: 6.00 Build 0)  -->
<svg version="1.1" id="레이어_1" xmlns="http://www.w3.org/2000/svg" xmlns:xlink="http://www.w3.org/1999/xlink" x="0px"
	 y="0px" viewBox="0 0 512 512" style="enable-background:new 0 0 512 512;" xml:space="preserve">
<g>
	<g>
		<path d="M276.4,256l144.8-144.8c1.6-1.6,1.6-3.2,0-3.2l-18.4-18.4h-1.6h-1.6l-144,145.6L110.8,90.4h-1.6h-1.6l-16.8,18.4
			c-1.6,0-1.6,1.6,0,3.2l145.6,144L91.6,400.8c-1.6,1.6-1.6,3.2,0,3.2l16.8,18.4h1.6h1.6l144-145.6l144.8,144.8h1.6h1.6l16.8-16.8
			c1.6-1.6,1.6-3.2,0-3.2L276.4,256z"/>
	</g>
</g>
</svg>
