<?xml version="1.0" encoding="utf-8"?>
<!-- Generator: Adobe Illustrator 19.1.1, SVG Export Plug-In . SVG Version: 6.00 Build 0)  -->
<svg version="1.1" id="레이어_1" xmlns="http://www.w3.org/2000/svg" xmlns:xlink="http://www.w3.org/1999/xlink" x="0px"
	 y="0px" viewBox="0 0 512 512" style="enable-background:new 0 0 512 512;" xml:space="preserve">
<path d="M226.7,415.6h64v-61.5h-64V415.6z M147.6,197.2h61.6c0-12,2.4-24.8,9.6-34.4c7.2-12,20-17.6,34.4-17.6
	c17.6,0,29.6,4.8,34.4,12c7.2,9.6,9.6,20,9.6,29.6s-2.4,17.6-9.6,27.2c-2.4,4.8-7.2,9.6-12,12l-14.4,12c-14.4,12-24.8,22.4-29.6,32
	c-4.8,9.6-4.8,27.2-7.2,52h59.2c0-12,0-20,2.4-24.8c2.4-9.6,7.2-17.6,17.6-22.4l14.4-12c14.4-12,27.2-22.4,32-29.6
	c9.6-12,14.4-29.6,14.4-46.4c0-29.6-9.6-54.4-32-68.8s-49.6-21.6-81.6-21.6c-24.8,0-46.4,4.8-61.6,17.6
	C165.2,128.5,149.9,157.2,147.6,197.2L147.6,197.2z"/>
</svg>
