<?xml version="1.0" encoding="UTF-8" standalone="no"?>
<svg width="1024px" height="1024px" viewBox="0 0 1024 1024" version="1.1" xmlns="http://www.w3.org/2000/svg" xmlns:xlink="http://www.w3.org/1999/xlink" xmlns:sketch="http://www.bohemiancoding.com/sketch/ns">
    <!-- Generator: Sketch 3.4 (15588) - http://www.bohemiancoding.com/sketch -->
    <title>Artboard 1</title>
    <desc>Created with Sketch.</desc>
    <defs></defs>
    <g id="Page-1" stroke="none" stroke-width="1" fill="none" fill-rule="evenodd" sketch:type="MSPage">
        <g id="Artboard-1" sketch:type="MSArtboardGroup" fill="#000000">
            <g id="question" sketch:type="MSLayerGroup" transform="translate(184.000000, 30.000000)">
                <path d="M239.831193,962.795 L432.418349,962.795 L432.418349,777.52625 L239.831193,777.52625 L239.831193,962.795 L239.831193,962.795 Z M1.80550459,304.865 L187.170642,304.865 C187.170642,268.715 194.392661,230.155 216.058716,201.235 C237.724771,165.085 276.242202,148.215 319.574312,148.215 C372.53578,148.215 408.645872,162.675 423.089908,184.365 C444.755963,213.285 451.977982,244.615 451.977982,273.535 C451.977982,302.455 444.755963,326.555 423.089908,355.475 C415.86789,369.935 401.423853,384.395 386.979817,391.625 L343.647706,427.775 C300.315596,463.925 269.020183,495.255 254.576147,524.175 C240.13211,553.095 240.13211,606.115 232.910092,680.825 L411.053211,680.825 C411.053211,644.675 411.053211,620.575 418.275229,606.115 C425.497248,577.195 439.941284,553.095 471.236697,538.635 L514.568807,502.485 C557.900917,466.335 596.418349,435.005 610.862385,413.315 C639.750459,377.165 654.194495,324.145 654.194495,273.535 C654.194495,184.365 625.306422,109.655 557.900917,66.275 C490.495413,22.895 408.645872,1.205 312.352294,1.205 C237.724771,1.205 172.726606,15.665 126.987156,54.225 C54.7669725,97.90625 8.7266055,184.365 1.80550459,304.865 L1.80550459,304.865 L1.80550459,304.865 Z" id="Shape" sketch:type="MSShapeGroup"></path>
            </g>
        </g>
    </g>
</svg>