<?xml version="1.0" encoding="UTF-8" standalone="no"?>
<svg width="1024px" height="1024px" viewBox="0 0 1024 1024" version="1.1" xmlns="http://www.w3.org/2000/svg" xmlns:xlink="http://www.w3.org/1999/xlink" xmlns:sketch="http://www.bohemiancoding.com/sketch/ns">
    <!-- Generator: Sketch 3.4 (15588) - http://www.bohemiancoding.com/sketch -->
    <title>Artboard 1</title>
    <desc>Created with Sketch.</desc>
    <defs></defs>
    <g id="Page-1" stroke="none" stroke-width="1" fill="none" fill-rule="evenodd" sketch:type="MSPage">
        <g id="Artboard-1" sketch:type="MSArtboardGroup" fill="#000000">
            <g id="redo" sketch:type="MSLayerGroup" transform="translate(30.000000, 35.000000)">
                <path d="M65.9969231,715.005699 C200.462564,942.383938 495.100513,1021.47202 724.483077,888.999482 C807.535385,843.523834 910.362051,699.188083 910.362051,699.188083 L819.4,659.644041 C785.78359,716.982902 740.302564,766.412953 675.047179,803.979793 C491.145641,908.771503 261.763077,843.523834 154.981538,665.575648 C48.2,487.627461 111.477949,258.272021 293.402051,155.457513 C453.574359,64.5062176 657.250256,100.095855 771.941538,238.5 L659.227692,301.770466 L912.339487,386.790155 L963.752821,125.799482 L858.948718,183.138342 C712.618462,-0.741450777 449.619487,-56.1031088 238.033846,64.5062176 C10.6287179,198.955959 -68.4687179,489.604663 65.9969231,715.005699 L65.9969231,715.005699 Z" id="Shape" sketch:type="MSShapeGroup"></path>
            </g>
        </g>
    </g>
</svg>