<?xml version="1.0" encoding="utf-8"?>
<!-- Generator: Adobe Illustrator 19.1.1, SVG Export Plug-In . SVG Version: 6.00 Build 0)  -->
<svg version="1.1" id="레이어_1" xmlns="http://www.w3.org/2000/svg" xmlns:xlink="http://www.w3.org/1999/xlink" x="0px"
	 y="0px" viewBox="0 0 512 512" style="enable-background:new 0 0 512 512;" xml:space="preserve">
<g>
	<g>
		<path d="M87.7,352.3c54.4,92,173.6,124,266.4,70.4c33.6-18.4,75.2-76.8,75.2-76.8l-36.8-16c-13.6,23.2-32,43.2-58.4,58.4
			c-74.4,42.4-167.2,16-210.4-56s-17.6-164.8,56-206.4c64.8-36.8,147.2-22.4,193.6,33.6l-45.6,25.6l102.4,34.4l20.8-105.6
			l-42.4,23.2c-59.2-74.4-165.6-96.8-251.2-48C65.3,143.5,33.3,261.1,87.7,352.3z"/>
	</g>
</g>
</svg>
