<?xml version="1.0" encoding="utf-8"?>
<!-- Generator: Adobe Illustrator 19.1.1, SVG Export Plug-In . SVG Version: 6.00 Build 0)  -->
<svg version="1.1" id="레이어_1" xmlns="http://www.w3.org/2000/svg" xmlns:xlink="http://www.w3.org/1999/xlink" x="0px"
	 y="0px" viewBox="0 0 512 512" style="enable-background:new 0 0 512 512;" xml:space="preserve">
<path d="M350.4,280c6.4,5.6,13.6,8.8,22.4,8.8c9.6,0,17.6-3.2,24-8.8c6.4-5.6,9.6-13.6,9.6-23.2s-3.2-17.6-9.6-23.2
	s-14.4-8.8-23.2-8.8c-8.8,0-16.8,3.2-22.4,9.6c-6.4,6.4-8.8,14.4-8.8,23.2C340.8,266.4,344,273.6,350.4,280z M116,280
	c6.4,5.6,13.6,8.8,23.2,8.8c8.8,0,16.8-3.2,22.4-8.8c5.6-5.6,8.8-13.6,8.8-23.2s-3.2-17.6-9.6-23.2c-6.4-5.6-13.6-8.8-22.4-8.8
	c-9.6,0-17.6,3.2-24,9.6c-5.6,6.4-8.8,14.4-8.8,23.2C106.4,266.4,109.6,273.6,116,280z M228,149.6c1.6,4,4,7.2,7.2,10.4
	c3.2,3.2,6.4,5.6,10.4,7.2s8,2.4,12.8,2.4c9.6,0,17.6-3.2,23.2-9.6c5.6-6.4,8.8-14.4,8.8-23.2c0-9.6-3.2-16.8-9.6-23.2
	c-6.4-6.4-13.6-9.6-22.4-9.6c-9.6,0-17.6,3.2-24,9.6s-8.8,14.4-8.8,23.2C224.8,141.6,226.4,145.6,228,149.6z M235.2,399.2
	c6.4,5.6,14.4,8.8,23.2,8.8c9.6,0,16.8-3.2,23.2-8.8s8.8-13.6,8.8-24c0-8.8-3.2-16.8-9.6-22.4c-6.4-5.6-13.6-8.8-22.4-8.8
	c-9.6,0-17.6,3.2-24,8.8c-6.4,6.4-8.8,13.6-8.8,22.4C224.8,385.6,228,392.8,235.2,399.2z M385.6,107.2L256,236L126.4,107.2
	l-19.2,19.2l129.6,128.8L107.2,384.8l19.2,19.2L256,274.4L385.6,404l19.2-19.2L275.2,255.2l129.6-128.8L385.6,107.2z"/>
</svg>
