<?xml version="1.0" encoding="UTF-8" standalone="no"?>
<svg width="1024px" height="1024px" viewBox="0 0 1024 1024" version="1.1" xmlns="http://www.w3.org/2000/svg" xmlns:xlink="http://www.w3.org/1999/xlink" xmlns:sketch="http://www.bohemiancoding.com/sketch/ns">
    <!-- Generator: Sketch 3.4 (15588) - http://www.bohemiancoding.com/sketch -->
    <title>Artboard 1</title>
    <desc>Created with Sketch.</desc>
    <defs></defs>
    <g id="Page-1" stroke="none" stroke-width="1" fill="none" fill-rule="evenodd" sketch:type="MSPage">
        <g id="Artboard-1" sketch:type="MSArtboardGroup" fill="#000000">
            <g id="special-character" sketch:type="MSLayerGroup" transform="translate(33.000000, 30.000000)">
                <path d="M778.454305,558.105263 C798.756291,575.863158 821.596026,586.010526 849.511258,586.010526 C879.964238,586.010526 905.341722,575.863158 925.643709,558.105263 C945.945695,540.347368 956.096689,514.978947 956.096689,484.536842 C956.096689,454.094737 945.945695,428.726316 925.643709,410.968421 C905.341722,393.210526 879.964238,383.063158 852.049007,383.063158 C824.133775,383.063158 798.756291,393.210526 780.992053,413.505263 C760.690066,433.8 753.076821,459.168421 753.076821,487.073684 C748.001325,514.978947 758.152318,537.810526 778.454305,558.105263 L778.454305,558.105263 Z M34.8940397,558.105263 C55.1960265,575.863158 78.0357616,586.010526 108.488742,586.010526 C136.403974,586.010526 161.781457,575.863158 179.545695,558.105263 C197.309934,540.347368 207.460927,514.978947 207.460927,484.536842 C207.460927,454.094737 197.309934,428.726316 177.007947,410.968421 C156.70596,393.210526 133.866225,383.063158 105.950993,383.063158 C75.4980132,383.063158 50.1205298,393.210526 29.818543,413.505263 C12.0543046,433.8 1.90331126,459.168421 1.90331126,487.073684 C4.4410596,514.978947 14.592053,537.810526 34.8940397,558.105263 L34.8940397,558.105263 Z M390.178808,144.6 C395.254305,157.284211 402.86755,167.431579 413.018543,177.578947 C423.169536,187.726316 433.32053,195.336842 446.009272,200.410526 C458.698013,205.484211 471.386755,208.021053 486.613245,208.021053 C517.066225,208.021053 542.443709,197.873684 560.207947,177.578947 C577.972185,157.284211 588.123179,131.915789 588.123179,104.010526 C588.123179,73.5684211 577.972185,50.7368421 557.670199,30.4421053 C537.368212,10.1473684 514.528477,2.66511837e-15 486.613245,2.66511837e-15 C456.160265,2.66511837e-15 430.782781,10.1473684 410.480795,30.4421053 C390.178808,50.7368421 382.565563,76.1052632 382.565563,104.010526 C380.027815,119.231579 385.103311,131.915789 390.178808,144.6 L390.178808,144.6 Z M413.018543,936.094737 C433.32053,953.852632 458.698013,964 486.613245,964 C517.066225,964 539.90596,953.852632 560.207947,936.094737 C580.509934,918.336842 588.123179,892.968421 588.123179,859.989474 C588.123179,832.084211 577.972185,806.715789 557.670199,788.957895 C537.368212,771.2 514.528477,761.052632 486.613245,761.052632 C456.160265,761.052632 430.782781,771.2 410.480795,788.957895 C390.178808,809.252632 382.565563,832.084211 382.565563,859.989474 C380.027815,892.968421 390.178808,915.8 413.018543,936.094737 L413.018543,936.094737 Z M890.115232,10.1473684 L479,418.578947 L67.8847682,10.1473684 L6.97880795,71.0315789 L418.09404,479.463158 L6.97880795,890.431579 L67.8847682,951.315789 L479,540.347368 L890.115232,951.315789 L951.021192,890.431579 L539.90596,479.463158 L951.021192,71.0315789 L890.115232,10.1473684 L890.115232,10.1473684 Z" id="Shape" sketch:type="MSShapeGroup"></path>
            </g>
        </g>
    </g>
</svg>