<?xml version="1.0" encoding="UTF-8" standalone="no"?>
<svg width="1024px" height="1024px" viewBox="0 0 1024 1024" version="1.1" xmlns="http://www.w3.org/2000/svg" xmlns:xlink="http://www.w3.org/1999/xlink" xmlns:sketch="http://www.bohemiancoding.com/sketch/ns">
    <!-- Generator: Sketch 3.4 (15588) - http://www.bohemiancoding.com/sketch -->
    <title>Artboard 1</title>
    <desc>Created with Sketch.</desc>
    <defs></defs>
    <g id="Page-1" stroke="none" stroke-width="1" fill="none" fill-rule="evenodd" sketch:type="MSPage">
        <g id="Artboard-1" sketch:type="MSArtboardGroup" fill="#020407">
            <g id="square" sketch:type="MSLayerGroup" transform="translate(30.000000, 84.000000)">
                <path d="M737.483744,1.9 L228.415764,1.9 C103.048276,1.9 0.474876847,104.5 0.474876847,229.9 L0.474876847,627 C0.474876847,752.4 101.148768,853.1 226.516256,853.1 L737.483744,853.1 C862.851232,853.1 963.525123,752.4 963.525123,627 L963.525123,229.9 C965.424631,104.5 862.851232,1.9 737.483744,1.9 L737.483744,1.9 Z M908.439409,570 C908.439409,695.4 807.765517,796.1 682.39803,796.1 L285.400985,796.1 C160.033498,796.1 59.3596059,695.4 59.3596059,570 L59.3596059,285 C59.3596059,159.6 160.033498,58.9 285.400985,58.9 L682.39803,58.9 C807.765517,58.9 908.439409,159.6 908.439409,285 L908.439409,570 L908.439409,570 L908.439409,570 Z" id="Shape" sketch:type="MSShapeGroup"></path>
            </g>
        </g>
    </g>
</svg>