<?xml version="1.0" encoding="utf-8"?>
<!-- Generator: Adobe Illustrator 19.1.1, SVG Export Plug-In . SVG Version: 6.00 Build 0)  -->
<svg version="1.1" id="레이어_1" xmlns="http://www.w3.org/2000/svg" xmlns:xlink="http://www.w3.org/1999/xlink" x="0px"
	 y="0px" viewBox="0 0 512 512" style="enable-background:new 0 0 512 512;" xml:space="preserve">
<style type="text/css">
	.st0{fill:#020407;}
</style>
<g>
	<g>
		<path class="st0" d="M363.6,76.8H149.2c-52.8,0-96,43.2-96,96V340c0,52.8,42.4,95.2,95.2,95.2h215.2c52.8,0,95.2-42.4,95.2-95.2
			V172.8C459.6,120,416.4,76.8,363.6,76.8z M435.6,316c0,52.8-42.4,95.2-95.2,95.2H173.2c-52.8,0-95.2-42.4-95.2-95.2V196
			c0-52.8,42.4-95.2,95.2-95.2h167.2c52.8,0,95.2,42.4,95.2,95.2L435.6,316L435.6,316z"/>
	</g>
</g>
</svg>
