<?xml version="1.0" encoding="UTF-8" standalone="no"?>
<svg width="1024px" height="1024px" viewBox="0 0 1024 1024" version="1.1" xmlns="http://www.w3.org/2000/svg" xmlns:xlink="http://www.w3.org/1999/xlink" xmlns:sketch="http://www.bohemiancoding.com/sketch/ns">
    <!-- Generator: Sketch 3.4 (15588) - http://www.bohemiancoding.com/sketch -->
    <title>Artboard 1</title>
    <desc>Created with Sketch.</desc>
    <defs></defs>
    <g id="Page-1" stroke="none" stroke-width="1" fill="none" fill-rule="evenodd" sketch:type="MSPage">
        <g id="Artboard-1" sketch:type="MSArtboardGroup" fill="#000000">
            <g id="strikethrough" sketch:type="MSLayerGroup" transform="translate(50.000000, 30.000000)">
                <path d="M526.906748,606.752941 C554.116564,624.898824 579.058896,631.703529 592.663804,647.581176 C626.676074,679.336471 644.815951,715.628235 644.815951,758.724706 C644.815951,783.675294 638.013497,806.357647 624.408589,826.771765 C610.803681,847.185882 590.396319,860.795294 565.453988,874.404706 C540.511656,885.745882 513.30184,892.550588 479.289571,892.550588 C433.939877,892.550588 393.125153,881.209412 352.310429,860.795294 C311.495706,840.381176 277.483436,813.162353 241.203681,774.602353 C207.191411,736.042353 200.388957,692.945882 179.981595,643.044706 L134.631902,643.044706 L134.631902,960.597647 L179.981595,960.597647 C184.516564,942.451765 193.586503,928.842353 207.191411,919.769412 C220.796319,908.428235 220.796319,901.623529 238.936196,901.623529 C252.541104,901.623529 277.483436,908.428235 318.29816,919.769412 C356.845399,933.378824 390.857669,944.72 422.602454,951.524706 C454.347239,958.329412 488.359509,962.865882 526.906748,962.865882 C581.32638,962.865882 638.013497,951.524706 681.095706,928.842353 C728.712883,908.428235 767.260123,876.672941 792.202454,835.844706 C819.41227,797.284706 833.017178,754.188235 833.017178,704.287059 C833.017178,665.727059 826.214724,638.508235 812.609816,606.752941 C810.342331,606.752941 526.906748,606.752941 526.906748,606.752941 L526.906748,606.752941 Z M887.153374,409.416471 L594.647853,409.416471 C574.240491,398.075294 556.100613,389.002353 535.693252,377.661176 C497.146012,357.247059 456.331288,339.101176 415.516564,316.418824 C374.70184,296.004706 342.957055,277.858824 329.352147,264.249412 C302.142331,239.298824 290.804908,212.08 290.804908,182.592941 C290.804908,148.569412 304.409816,123.618824 329.352147,103.204706 C354.294479,82.7905882 388.306748,71.4494118 433.656442,71.4494118 C474.471166,71.4494118 513.018405,82.7905882 551.565644,98.6682353 C590.112883,119.082353 624.125153,144.032941 655.869939,178.056471 C687.614724,212.08 714.82454,252.908235 730.696933,298.272941 L791.919018,298.272941 L791.919018,10.2070588 L723.894479,10.2070588 C712.557055,41.9623529 696.684663,62.3764706 671.742331,62.3764706 C660.404908,62.3764706 651.334969,48.7670588 633.195092,44.2305882 C615.055215,39.6941176 594.647853,32.8894118 567.438037,26.0847059 C540.228221,19.28 515.28589,12.4752941 492.611043,7.93882353 C469.936196,3.40235294 440.458896,1.13411765 410.981595,1.13411765 C370.166871,1.13411765 329.352147,7.93882353 293.072393,19.28 C254.525153,30.6211765 225.047853,46.4988235 200.105521,66.9129412 C172.895706,87.3270588 152.488344,112.277647 138.883436,141.764706 C125.278528,168.983529 113.941104,200.738824 113.941104,234.762353 C113.941104,296.004706 138.883436,352.710588 186.500613,395.807059 C191.035583,400.343529 191.035583,400.343529 193.303067,402.611765 L34.5791411,402.611765 C16.4392638,402.611765 0.566871166,416.221176 0.566871166,436.635294 L0.566871166,504.682353 C0.566871166,522.828235 14.1717791,538.705882 34.5791411,538.705882 L889.420859,538.705882 C907.560736,538.705882 923.433129,525.096471 923.433129,504.682353 L923.433129,436.635294 C918.89816,423.025882 905.293252,409.416471 887.153374,409.416471 L887.153374,409.416471 Z" id="Shape" sketch:type="MSShapeGroup"></path>
            </g>
        </g>
    </g>
</svg>