<?xml version="1.0" encoding="utf-8"?>
<!-- Generator: Adobe Illustrator 19.1.1, SVG Export Plug-In . SVG Version: 6.00 Build 0)  -->
<svg version="1.1" id="레이어_1" xmlns="http://www.w3.org/2000/svg" xmlns:xlink="http://www.w3.org/1999/xlink" x="0px"
	 y="0px" viewBox="0 0 512 512" style="enable-background:new 0 0 512 512;" xml:space="preserve">
<g>
	<g>
		<path d="M278.9,300c9.6,6.4,18.4,8.8,23.2,14.4c12,11.2,18.4,24,18.4,39.2c0,8.8-2.4,16.8-7.2,24c-4.8,7.2-12,12-20.8,16.8
			c-8.8,4-18.4,6.4-30.4,6.4c-16,0-30.4-4-44.8-11.2s-26.4-16.8-39.2-30.4c-12-13.6-14.4-28.8-21.6-46.4h-16v112h16
			c1.6-6.4,4.8-11.2,9.6-14.4c4.8-4,4.8-6.4,11.2-6.4c4.8,0,13.6,2.4,28,6.4c13.6,4.8,25.6,8.8,36.8,11.2s23.2,4,36.8,4
			c19.2,0,39.2-4,54.4-12c16.8-7.2,30.4-18.4,39.2-32.8c9.6-13.6,14.4-28.8,14.4-46.4c0-13.6-2.4-23.2-7.2-34.4
			C378.9,300,278.9,300,278.9,300z M406,230.4H302.8c-7.2-4-13.6-7.2-20.8-11.2c-13.6-7.2-28-13.6-42.4-21.6
			c-14.4-7.2-25.6-13.6-30.4-18.4c-9.6-8.8-13.6-18.4-13.6-28.8c0-12,4.8-20.8,13.6-28s20.8-11.2,36.8-11.2c14.4,0,28,4,41.6,9.6
			c13.6,7.2,25.6,16,36.8,28s20.8,26.4,26.4,42.4h21.6V89.6h-24c-4,11.2-9.6,18.4-18.4,18.4c-4,0-7.2-4.8-13.6-6.4
			c-6.4-1.6-13.6-4-23.2-6.4c-9.6-2.4-18.4-4.8-26.4-6.4c-8-1.6-18.4-2.4-28.8-2.4c-14.4,0-28.8,2.4-41.6,6.4
			c-13.6,4-24,9.6-32.8,16.8c-9.6,7.2-16.8,16-21.6,26.4c-4.8,9.6-8.8,20.8-8.8,32.8c0,21.6,8.8,41.6,25.6,56.8
			c1.6,1.6,1.6,1.6,2.4,2.4h-56c-6.4,0-12,4.8-12,12v24c0,6.4,4.8,12,12,12h301.6c6.4,0,12-4.8,12-12v-24
			C417.2,235.2,412.4,230.4,406,230.4z"/>
	</g>
</g>
</svg>
