<?xml version="1.0" encoding="utf-8"?>
<!-- Generator: Adobe Illustrator 19.1.1, SVG Export Plug-In . SVG Version: 6.00 Build 0)  -->
<svg version="1.1" id="레이어_1" xmlns="http://www.w3.org/2000/svg" xmlns:xlink="http://www.w3.org/1999/xlink" x="0px"
	 y="0px" viewBox="0 0 512 512" style="enable-background:new 0 0 512 512;" xml:space="preserve">
<g>
	<g>
		<path d="M314.6,352.2l-64.8-102.4L313,157c5.6-8.8,16-13.6,26.4-13.6h16.8v-32h-77.6l-64.8,95.2l-65.6-95.2H70.6v32h16.8
			c10.4,0,20.8,4.8,26.4,13.6l63.2,92.8l-64.8,102.4c-5.6,8.8-16,14.4-27.2,14.4H66.6v32h83.2l63.2-100l63.2,100h83.2v-32H341
			C330.6,366.7,320.2,361.1,314.6,352.2z M425,423.4c15.2-12.8,32-28,32-48s-14.4-32.8-36-32.8c-12,0-24,3.2-33.6,11.2l8,20
			c6.4-4.8,13.6-8.8,21.6-8.8c8.8,0,13.6,4.8,13.6,12.8c0,13.6-16,26.4-44,52v16.8h72.8v-23.2H425z"/>
	</g>
</g>
</svg>
