<?xml version="1.0" encoding="UTF-8" standalone="no"?>
<svg width="1024px" height="1024px" viewBox="0 0 1024 1024" version="1.1" xmlns="http://www.w3.org/2000/svg" xmlns:xlink="http://www.w3.org/1999/xlink" xmlns:sketch="http://www.bohemiancoding.com/sketch/ns">
    <!-- Generator: Sketch 3.4 (15588) - http://www.bohemiancoding.com/sketch -->
    <title>Artboard 1</title>
    <desc>Created with Sketch.</desc>
    <defs></defs>
    <g id="Page-1" stroke="none" stroke-width="1" fill="none" fill-rule="evenodd" sketch:type="MSPage">
        <g id="Artboard-1" sketch:type="MSArtboardGroup" fill="#000000">
            <g id="subscript" sketch:type="MSLayerGroup" transform="translate(30.000000, 101.000000)">
                <path d="M608.249746,590.078571 L449.703553,339.564286 L604.335025,112.535714 C618.036548,91.0071429 643.482234,79.2642857 668.927919,79.2642857 L710.032487,79.2642857 L710.032487,0.978571429 L520.168528,0.978571429 L361.622335,233.878571 L201.118782,0.978571429 L11.2548223,0.978571429 L11.2548223,79.2642857 L52.3593909,79.2642857 C77.8050761,79.2642857 103.250761,91.0071429 116.952284,112.535714 L271.583756,339.564286 L113.037563,590.078571 C99.3360406,611.607143 73.8903553,625.307143 46.4873096,625.307143 L1.4680203,625.307143 L1.4680203,703.592857 L205.033503,703.592857 L359.664975,458.95 L514.296447,703.592857 L717.861929,703.592857 L717.861929,625.307143 L672.84264,625.307143 C647.396954,625.551786 621.951269,611.851786 608.249746,590.078571 L608.249746,590.078571 Z M878.365482,764.264286 C915.55533,732.95 956.659898,695.764286 956.659898,646.835714 C956.659898,597.907143 921.427411,566.592857 868.57868,566.592857 C839.218274,566.592857 809.857868,574.421429 786.369543,593.992857 L805.943147,642.921429 C821.60203,631.178571 839.218274,621.392857 858.791878,621.392857 C880.322843,621.392857 892.067005,633.135714 892.067005,652.707143 C892.067005,685.978571 852.919797,717.292857 784.412183,779.921429 L784.412183,821.021429 L962.53198,821.021429 L962.53198,764.264286 L878.365482,764.264286 L878.365482,764.264286 Z" id="Shape" sketch:type="MSShapeGroup"></path>
            </g>
        </g>
    </g>
</svg>