<?xml version="1.0" encoding="UTF-8" standalone="no"?>
<svg width="1024px" height="1024px" viewBox="0 0 1024 1024" version="1.1" xmlns="http://www.w3.org/2000/svg" xmlns:xlink="http://www.w3.org/1999/xlink" xmlns:sketch="http://www.bohemiancoding.com/sketch/ns">
    <!-- Generator: Sketch 3.4 (15588) - http://www.bohemiancoding.com/sketch -->
    <title>Artboard 1</title>
    <desc>Created with Sketch.</desc>
    <defs></defs>
    <g id="Page-1" stroke="none" stroke-width="1" fill="none" fill-rule="evenodd" sketch:type="MSPage">
        <g id="Artboard-1" sketch:type="MSArtboardGroup" fill="#000000">
            <g id="superscript" sketch:type="MSLayerGroup" transform="translate(30.000000, 131.000000)">
                <path d="M961.074,192.658228 L882.108,192.658228 C918.702,161.832911 957.222,125.227848 957.222,78.9898734 C957.222,32.7518987 924.48,1.92658228 872.478,1.92658228 C843.588,1.92658228 816.624,9.63291139 791.586,28.8987342 L810.846,75.1367089 C826.254,63.5772152 841.662,53.9443038 860.922,53.9443038 C882.108,53.9443038 893.664,63.5772152 893.664,82.843038 C893.664,115.594937 855.144,146.420253 789.66,206.144304 L789.66,244.675949 L961.074,244.675949 L961.074,192.658228 L961.074,192.658228 Z M697.212,682.010127 L697.212,759.073418 L498.834,759.073418 L348.606,522.103797 L198.378,759.073418 L1.926,759.073418 L1.926,682.010127 L44.298,682.010127 C71.262,682.010127 94.374,668.524051 107.856,647.331646 L261.936,404.582278 L113.634,184.951899 C100.152,165.686076 77.04,152.2 50.076,152.2 L9.63,152.2 L9.63,75.1367089 L194.526,75.1367089 L348.606,300.546835 L502.686,75.1367089 L687.582,75.1367089 L687.582,152.2 L647.136,152.2 C622.098,152.2 598.986,163.759494 583.578,184.951899 L435.276,404.582278 L589.356,647.331646 C602.838,668.524051 627.876,682.010127 652.914,682.010127 L697.212,682.010127 L697.212,682.010127 L697.212,682.010127 Z" id="Shape" sketch:type="MSShapeGroup"></path>
            </g>
        </g>
    </g>
</svg>