<?xml version="1.0" encoding="utf-8"?>
<!-- Generator: Adobe Illustrator 19.1.1, SVG Export Plug-In . SVG Version: 6.00 Build 0)  -->
<svg version="1.1" id="레이어_1" xmlns="http://www.w3.org/2000/svg" xmlns:xlink="http://www.w3.org/1999/xlink" x="0px"
	 y="0px" viewBox="0 0 512 512" style="enable-background:new 0 0 512 512;" xml:space="preserve">
<path d="M462.2,172h-32.8c15.2-12.8,31.2-28,31.2-47.2s-13.6-32-35.2-32c-12,0-23.2,3.2-33.6,11.2l8,19.2c6.4-4.8,12.8-8.8,20.8-8.8
	c8.8,0,13.6,4,13.6,12c0,13.6-16,26.4-43.2,51.2v16h71.2V172z M352.6,375.2v32h-82.4l-62.4-98.4l-62.4,98.4H63.8v-32h17.6
	c11.2,0,20.8-5.6,26.4-14.4l64-100.8l-61.6-91.2c-5.6-8-15.2-13.6-26.4-13.6H67v-32h76.8l64,93.6l64-93.6h76.8v32h-16.8
	c-10.4,0-20,4.8-26.4,13.6L243.8,260l64,100.8c5.6,8.8,16,14.4,26.4,14.4H352.6L352.6,375.2z"/>
</svg>
