<?xml version="1.0" encoding="UTF-8" standalone="no"?>
<svg width="1024px" height="1024px" viewBox="0 0 1024 1024" version="1.1" xmlns="http://www.w3.org/2000/svg" xmlns:xlink="http://www.w3.org/1999/xlink" xmlns:sketch="http://www.bohemiancoding.com/sketch/ns">
    <!-- Generator: Sketch 3.4 (15588) - http://www.bohemiancoding.com/sketch -->
    <title>Artboard 1</title>
    <desc>Created with Sketch.</desc>
    <defs></defs>
    <g id="Page-1" stroke="none" stroke-width="1" fill="none" fill-rule="evenodd" sketch:type="MSPage">
        <g id="Artboard-1" sketch:type="MSArtboardGroup" fill="#000000">
            <g id="table" sketch:type="MSLayerGroup" transform="translate(30.000000, 121.000000)">
                <path d="M1.48307692,781.087179 L962.516923,781.087179 L962.516923,0 L1.48307692,0 L1.48307692,781.087179 L1.48307692,781.087179 Z M661.946667,59.5702564 L903.193846,59.5702564 L903.193846,239.516923 L661.946667,239.516923 L661.946667,59.5702564 L661.946667,59.5702564 Z M661.946667,298.84 L903.193846,298.84 L903.193846,478.786667 L661.946667,478.786667 L661.946667,298.84 L661.946667,298.84 Z M661.946667,539.84 L903.193846,539.84 L903.193846,719.786667 L661.946667,719.786667 L661.946667,539.84 L661.946667,539.84 Z M361.37641,59.5702564 L602.62359,59.5702564 L602.62359,239.516923 L361.37641,239.516923 L361.37641,59.5702564 L361.37641,59.5702564 L361.37641,59.5702564 Z M361.37641,298.84 L602.62359,298.84 L602.62359,478.786667 L361.37641,478.786667 L361.37641,298.84 L361.37641,298.84 L361.37641,298.84 Z M361.37641,539.84 L602.62359,539.84 L602.62359,719.786667 L361.37641,719.786667 L361.37641,539.84 L361.37641,539.84 L361.37641,539.84 Z M60.8061538,59.5702564 L302.053333,59.5702564 L302.053333,239.516923 L60.8061538,239.516923 L60.8061538,298.84 L302.053333,298.84 L302.053333,478.786667 L60.8061538,478.786667 L60.8061538,538.109744 L302.053333,538.109744 L302.053333,718.05641 L60.8061538,718.05641 L60.8061538,59.5702564 L60.8061538,59.5702564 Z" id="Shape" sketch:type="MSShapeGroup"></path>
            </g>
        </g>
    </g>
</svg>