<?xml version="1.0" encoding="utf-8"?>
<!-- Generator: Adobe Illustrator 19.1.1, SVG Export Plug-In . SVG Version: 6.00 Build 0)  -->
<svg version="1.1" id="레이어_1" xmlns="http://www.w3.org/2000/svg" xmlns:xlink="http://www.w3.org/1999/xlink" x="0px"
	 y="0px" viewBox="0 0 512 512" style="enable-background:new 0 0 512 512;" xml:space="preserve">
<g>
	<g>
		<path d="M61.6,414h388.8V98H61.6V414z M328.8,122.1h97.6v72.8h-97.6V122.1z M328.8,218.9h97.6v72.8h-97.6V218.9z M328.8,316.4
			h97.6v72.8h-97.6V316.4z M207.2,122.1h97.6v72.8h-97.6L207.2,122.1L207.2,122.1z M207.2,218.9h97.6v72.8h-97.6L207.2,218.9
			L207.2,218.9z M207.2,316.4h97.6v72.8h-97.6L207.2,316.4L207.2,316.4z M85.6,122.1h97.6v72.8H85.6v24h97.6v72.8H85.6v24h97.6v72.8
			H85.6V122.1z"/>
	</g>
</g>
</svg>
