<?xml version="1.0" encoding="UTF-8" standalone="no"?>
<svg width="1024px" height="1024px" viewBox="0 0 1024 1024" version="1.1" xmlns="http://www.w3.org/2000/svg" xmlns:xlink="http://www.w3.org/1999/xlink" xmlns:sketch="http://www.bohemiancoding.com/sketch/ns">
    <!-- Generator: Sketch 3.4 (15588) - http://www.bohemiancoding.com/sketch -->
    <title>Artboard 1</title>
    <desc>Created with Sketch.</desc>
    <defs></defs>
    <g id="Page-1" stroke="none" stroke-width="1" fill="none" fill-rule="evenodd" sketch:type="MSPage">
        <g id="Artboard-1" sketch:type="MSArtboardGroup" fill="#000000">
            <g id="text-height" sketch:type="MSLayerGroup" transform="translate(30.000000, 169.000000)">
                <path d="M0.816949153,193.821186 L56.3694915,193.821186 C56.3694915,162.777119 66.1728814,138.268644 77.6101695,117.027966 C87.4135593,95.7872881 103.752542,81.0822034 118.457627,71.2788136 C133.162712,66.3771186 159.305085,61.4754237 195.250847,61.4754237 L250.80339,61.4754237 L250.80339,541.841525 C250.80339,572.885593 245.901695,592.492373 236.098305,608.831356 C226.294915,618.634746 205.054237,630.072034 169.108475,630.072034 L154.40339,630.072034 L154.40339,685.624576 L526.932203,685.624576 L526.932203,630.072034 L512.227119,630.072034 C476.281356,630.072034 456.674576,625.170339 445.237288,608.831356 C435.433898,599.027966 430.532203,572.885593 430.532203,541.841525 L430.532203,61.2711864 L486.084746,61.2711864 C526.932203,61.2711864 557.976271,71.0745763 577.583051,87.4135593 C598.823729,108.654237 613.528814,138.064407 623.332203,195.250847 L678.884746,195.250847 L678.884746,0.612711864 L0.816949153,0.612711864 L0.816949153,193.821186 L0.816949153,193.821186 L0.816949153,193.821186 Z M863.311017,112.126271 L959.915254,112.126271 L837.372881,9.19067797 L714.830508,112.126271 L811.230508,112.126271 L811.230508,571.251695 L708.294915,571.251695 L835.738983,674.187288 L963.183051,571.251695 L860.247458,571.251695 L860.247458,112.126271 L863.311017,112.126271 L863.311017,112.126271 Z" id="Shape" sketch:type="MSShapeGroup"></path>
            </g>
        </g>
    </g>
</svg>