<?xml version="1.0" encoding="utf-8"?>
<!-- Generator: Adobe Illustrator 19.1.1, SVG Export Plug-In . SVG Version: 6.00 Build 0)  -->
<svg version="1.1" id="레이어_1" xmlns="http://www.w3.org/2000/svg" xmlns:xlink="http://www.w3.org/1999/xlink" x="0px"
	 y="0px" viewBox="0 0 512 512" style="enable-background:new 0 0 512 512;" xml:space="preserve">
<g>
	<g>
		<path d="M20.4,182.9h27.2c0-15.2,4.8-27.2,10.4-37.6c4.8-10.4,12.8-17.6,20-22.4c7.2-2.4,20-4.8,37.6-4.8h27.2v235.2
			c0,15.2-2.4,24.8-7.2,32.8c-4.8,4.8-15.2,10.4-32.8,10.4h-7.2v27.2H278v-27.2h-7.2c-17.6,0-27.2-2.4-32.8-10.4
			c-4.8-4.8-7.2-17.6-7.2-32.8V118H258c20,0,35.2,4.8,44.8,12.8c10.4,10.4,17.6,24.8,22.4,52.8h27.2V88.3h-332L20.4,182.9
			L20.4,182.9z M442.7,142.9H490l-60-50.4l-60,50.4h47.2v224.8h-50.4l62.4,50.4l62.4-50.4h-50.4V142.9H442.7z"/>
	</g>
</g>
</svg>
