<?xml version="1.0" encoding="utf-8"?>
<!-- Generator: Adobe Illustrator 19.1.1, SVG Export Plug-In . SVG Version: 6.00 Build 0)  -->
<svg version="1.1" id="레이어_1" xmlns="http://www.w3.org/2000/svg" xmlns:xlink="http://www.w3.org/1999/xlink" x="0px"
	 y="0px" viewBox="0 0 512 512" style="enable-background:new 0 0 512 512;" xml:space="preserve">
<style type="text/css">
	.st0{fill:#020407;}
</style>
<path class="st0" d="M428,108v24.8H84V108h107.2c13.6,0,24-11.2,24-24h79.2c0,13.6,11.2,24,24,24H428z M403.2,157.6L354.4,428H157.6
	l-48.8-270.4H403.2z M188,200.8c0-8-6.4-14.4-14.4-14.4c-8,0-14.4,6.4-14.4,14.4L184,384c0,8,6.4,14.4,14.4,14.4s14.4-6.4,14.4-14.4
	L188,200.8z M270.4,200.8c0-8-6.4-14.4-14.4-14.4s-14.4,6.4-14.4,14.4V384c0,8,6.4,14.4,14.4,14.4s14.4-6.4,14.4-14.4V200.8z
	 M348.8,200.8c0-8-6.4-14.4-14.4-14.4s-14.4,6.4-14.4,14.4L298.4,384c0,8,6.4,14.4,14.4,14.4s14.4-6.4,14.4-14.4L348.8,200.8z"/>
</svg>
