<?xml version="1.0" encoding="UTF-8" standalone="no"?>
<svg width="1024px" height="1024px" viewBox="0 0 1024 1024" version="1.1" xmlns="http://www.w3.org/2000/svg" xmlns:xlink="http://www.w3.org/1999/xlink" xmlns:sketch="http://www.bohemiancoding.com/sketch/ns">
    <!-- Generator: Sketch 3.4 (15588) - http://www.bohemiancoding.com/sketch -->
    <title>Artboard 1</title>
    <desc>Created with Sketch.</desc>
    <defs></defs>
    <g id="Page-1" stroke="none" stroke-width="1" fill="none" fill-rule="evenodd" sketch:type="MSPage">
        <g id="Artboard-1" sketch:type="MSArtboardGroup" fill="#020407">
            <g id="trash" sketch:type="MSLayerGroup" transform="translate(16.000000, 18.000000)">
                <path d="M992,69.2093023 L992,140.725581 L0,140.725581 L0,69.2093023 L309.134884,69.2093023 C348.353488,69.2093023 378.344186,36.9116279 378.344186,0 L606.734884,0 C606.734884,39.2186047 639.032558,69.2093023 675.944186,69.2093023 L992,69.2093023 L992,69.2093023 Z M920.483721,212.24186 L779.75814,992 L212.24186,992 L71.5162791,212.24186 L920.483721,212.24186 L920.483721,212.24186 Z M299.906977,336.818605 C299.906977,313.748837 281.451163,295.293023 258.381395,295.293023 C235.311628,295.293023 216.855814,313.748837 216.855814,336.818605 L288.372093,865.116279 C288.372093,888.186047 306.827907,906.64186 329.897674,906.64186 C352.967442,906.64186 371.423256,888.186047 371.423256,865.116279 L299.906977,336.818605 L299.906977,336.818605 Z M537.525581,336.818605 C537.525581,313.748837 519.069767,295.293023 496,295.293023 C472.930233,295.293023 454.474419,313.748837 454.474419,336.818605 L454.474419,865.116279 C454.474419,888.186047 472.930233,906.64186 496,906.64186 C519.069767,906.64186 537.525581,888.186047 537.525581,865.116279 L537.525581,336.818605 L537.525581,336.818605 Z M763.609302,336.818605 C763.609302,313.748837 745.153488,295.293023 722.083721,295.293023 C699.013953,295.293023 680.55814,313.748837 680.55814,336.818605 L618.269767,865.116279 C618.269767,888.186047 636.725581,906.64186 659.795349,906.64186 C682.865116,906.64186 701.32093,888.186047 701.32093,865.116279 L763.609302,336.818605 L763.609302,336.818605 Z" id="Shape" sketch:type="MSShapeGroup"></path>
            </g>
        </g>
    </g>
</svg>