<?xml version="1.0" encoding="UTF-8" standalone="no"?>
<svg width="1024px" height="1024px" viewBox="0 0 1024 1024" version="1.1" xmlns="http://www.w3.org/2000/svg" xmlns:xlink="http://www.w3.org/1999/xlink" xmlns:sketch="http://www.bohemiancoding.com/sketch/ns">
    <!-- Generator: Sketch 3.4 (15588) - http://www.bohemiancoding.com/sketch -->
    <title>Artboard 1</title>
    <desc>Created with Sketch.</desc>
    <defs></defs>
    <g id="Page-1" stroke="none" stroke-width="1" fill="none" fill-rule="evenodd" sketch:type="MSPage">
        <g id="Artboard-1" sketch:type="MSArtboardGroup" fill="#000000">
            <g id="underline" sketch:type="MSLayerGroup" transform="translate(34.000000, 12.000000)">
                <path d="M50.626506,990 L899.771084,990 L899.771084,918.627907 L50.626506,918.627907 L50.626506,990 L50.626506,990 Z M616.722892,4.60465116 L616.722892,75.9767442 C701.86747,75.9767442 743.289157,117.418605 743.289157,202.604651 L743.289157,485.790698 C743.289157,550.255814 736.385542,605.511628 729.481928,642.348837 C715.674699,676.883721 694.963855,713.72093 658.144578,734.44186 C623.626506,762.069767 579.903614,775.883721 524.674699,775.883721 C474.048193,775.883721 439.53012,762.069767 405.012048,741.348837 C370.493976,720.627907 347.481928,683.790698 340.578313,649.255814 C333.674699,614.72093 326.771084,564.069767 326.771084,506.511628 L326.771084,174.976744 C326.771084,140.44186 333.674699,110.511628 347.481928,96.6976744 C361.289157,82.8837209 388.903614,75.9767442 432.626506,75.9767442 L446.433735,75.9767442 L446.433735,4.60465116 L0,4.60465116 L0,75.9767442 C50.626506,75.9767442 78.2409639,82.8837209 92.0481928,96.6976744 C105.855422,110.511628 112.759036,138.139535 112.759036,181.883721 L112.759036,515.72093 C112.759036,566.372093 119.662651,614.72093 126.566265,649.255814 C133.46988,683.790698 154.180723,720.627907 184.096386,755.162791 C211.710843,789.697674 248.53012,812.72093 303.759036,833.44186 C354.385542,854.162791 416.518072,867.976744 480.951807,867.976744 C545.385542,867.976744 600.614458,854.162791 651.240964,833.44186 C701.86747,812.72093 743.289157,782.790698 770.903614,748.255814 C798.518072,713.72093 821.53012,676.883721 828.433735,635.44186 C835.337349,600.906977 842.240964,550.255814 842.240964,485.790698 L842.240964,204.906977 C842.240964,170.372093 849.144578,147.348837 856.048193,126.627907 C862.951807,105.906977 876.759036,92.0930233 897.46988,85.1860465 C918.180723,78.2790698 931.987952,71.372093 955,71.372093 L955,0 L616.722892,0 L616.722892,4.60465116 L616.722892,4.60465116 L616.722892,4.60465116 Z" id="Shape" sketch:type="MSShapeGroup"></path>
            </g>
        </g>
    </g>
</svg>