<?xml version="1.0" encoding="utf-8"?>
<!-- Generator: Adobe Illustrator 19.1.1, SVG Export Plug-In . SVG Version: 6.00 Build 0)  -->
<svg version="1.1" id="레이어_1" xmlns="http://www.w3.org/2000/svg" xmlns:xlink="http://www.w3.org/1999/xlink" x="0px"
	 y="0px" viewBox="0 0 512 512" style="enable-background:new 0 0 512 512;" xml:space="preserve">
<g>
	<g>
		<path d="M107.6,428h295.2v-24.8H107.6V428z M304.4,85.6v24.8c29.6,0,44,14.4,44,44v98.4c0,22.4-2.4,41.6-4.8,54.4
			c-4.8,12-12,24.8-24.8,32c-12,9.6-27.2,14.4-46.4,14.4c-17.6,0-29.6-4.8-41.6-12s-20-20-22.4-32s-4.8-29.6-4.8-49.6V144.8
			c0-12,2.4-22.4,7.2-27.2c4.8-4.8,14.4-7.2,29.6-7.2h4.8V85.6H90v24.8c17.6,0,27.2,2.4,32,7.2c4.8,4.8,7.2,14.4,7.2,29.6v116
			c0,17.6,2.4,34.4,4.8,46.4s9.6,24.8,20,36.8c9.6,12,22.4,20,41.6,27.2c17.6,7.2,39.2,12,61.6,12s41.6-4.8,59.2-12
			s32-17.6,41.6-29.6s17.6-24.8,20-39.2c2.4-12,4.8-29.6,4.8-52v-97.6c0-12,2.4-20,4.8-27.2s7.2-12,14.4-14.4s12-4.8,20-4.8V84
			H304.4V85.6L304.4,85.6z"/>
	</g>
</g>
</svg>
