<?xml version="1.0" encoding="UTF-8" standalone="no"?>
<svg width="993px" height="990px" viewBox="0 0 993 990" version="1.1" xmlns="http://www.w3.org/2000/svg" xmlns:xlink="http://www.w3.org/1999/xlink" xmlns:sketch="http://www.bohemiancoding.com/sketch/ns">
    <!-- Generator: Sketch 3.4 (15588) - http://www.bohemiancoding.com/sketch -->
    <title>undo</title>
    <desc>Created with Sketch.</desc>
    <defs></defs>
    <g id="Page-1" stroke="none" stroke-width="1" fill="none" fill-rule="evenodd" sketch:type="MSPage">
        <g id="Artboard-1" sketch:type="MSArtboardGroup" transform="translate(-16.000000, -13.000000)" fill="#000000">
            <g id="undo" sketch:type="MSLayerGroup" transform="translate(14.000000, 13.000000)">
                <path d="M746.732653,65.4462338 C529.020408,-58.2316883 258.406122,-0.515324675 107.838776,189.124156 L2.03469388,129.346494 L54.9367347,401.437922 L315.377551,312.802078 L199.4,244.779221 C319.446939,100.488312 526.985714,63.3849351 693.830612,158.204675 C878.987755,267.453506 946.132653,506.564156 836.259184,690.01974 C726.385714,873.475325 490.361224,941.498182 301.134694,834.310649 C236.02449,795.145974 187.191837,745.674805 152.602041,683.835844 L59.0061224,725.061818 C59.0061224,725.061818 166.844898,875.536623 250.267347,922.946494 C486.291837,1061.05351 789.461224,976.54026 927.820408,741.552208 C1066.17959,506.564156 982.757143,203.553247 746.732653,65.4462338 L746.732653,65.4462338 Z" id="Shape" sketch:type="MSShapeGroup"></path>
            </g>
        </g>
    </g>
</svg>