<?xml version="1.0" encoding="UTF-8" standalone="no"?>
<svg width="1024px" height="1024px" viewBox="0 0 1024 1024" version="1.1" xmlns="http://www.w3.org/2000/svg" xmlns:xlink="http://www.w3.org/1999/xlink" xmlns:sketch="http://www.bohemiancoding.com/sketch/ns">
    <!-- Generator: Sketch 3.4 (15588) - http://www.bohemiancoding.com/sketch -->
    <title>Artboard 1</title>
    <desc>Created with Sketch.</desc>
    <defs></defs>
    <g id="Page-1" stroke="none" stroke-width="1" fill="none" fill-rule="evenodd" sketch:type="MSPage">
        <g id="Artboard-1" sketch:type="MSArtboardGroup" fill="#000000">
            <g id="unorderedlist" sketch:type="MSLayerGroup" transform="translate(30.000000, 189.000000)">
                <path d="M257.431818,4.10795455 L257.431818,133.371591 L962.904545,133.371591 L962.904545,4.10795455 L257.431818,4.10795455 L257.431818,4.10795455 Z M962.904545,260.718182 L257.431818,260.718182 L257.431818,389.981818 L962.904545,389.981818 L962.904545,260.718182 L962.904545,260.718182 Z M257.431818,644.127273 L962.904545,644.127273 L962.904545,514.863636 L257.431818,514.863636 L257.431818,644.127273 L257.431818,644.127273 Z M1.09545455,131.454545 L130.359091,131.454545 L130.359091,2.19090909 L1.09545455,2.19090909 L1.09545455,131.454545 L1.09545455,131.454545 Z M128.168182,260.718182 L1.09545455,260.718182 L1.09545455,389.981818 L130.359091,389.981818 L130.359091,260.718182 L128.168182,260.718182 L128.168182,260.718182 Z M1.09545455,644.127273 L130.359091,644.127273 L130.359091,514.863636 L1.09545455,514.863636 L1.09545455,644.127273 L1.09545455,644.127273 Z" id="Shape" sketch:type="MSShapeGroup"></path>
            </g>
        </g>
    </g>
</svg>