<?xml version="1.0" standalone="no"?>
<!DOCTYPE svg PUBLIC "-//W3C//DTD SVG 1.1//EN" "http://www.w3.org/Graphics/SVG/1.1/DTD/svg11.dtd" >
<svg xmlns="http://www.w3.org/2000/svg" xmlns:xlink="http://www.w3.org/1999/xlink" version="1.1">
<metadata>
Created by FontForge 20150827 at Mon Nov 02 15:10:57 2015
 By Jayden
</metadata>
<defs>
<font id="summernote" horiz-adv-x="725" >
  <font-face 
    font-family="summernote"
    font-weight="400"
    font-stretch="normal"
    units-per-em="1024"
    panose-1="2 0 5 3 0 0 0 0 0 0"
    ascent="1024"
    descent="0"
    bbox="-1 0 949 953"
    underline-thickness="51"
    underline-position="-153"
    unicode-range="U+F101-F128"
  />
<missing-glyph horiz-adv-x="374" 
d="M34 0v682h272v-682h-272zM68 34h204v614h-204v-614z" />
    <glyph glyph-name=".notdef" horiz-adv-x="374" 
d="M34 0v682h272v-682h-272zM68 34h204v614h-204v-614z" />
    <glyph glyph-name=".null" horiz-adv-x="0" 
 />
    <glyph glyph-name="nonmarkingreturn" horiz-adv-x="341" 
 />
    <glyph glyph-name="uniF101" unicode="&#xf101;" 
d="M723 790l2 -112h-725v112h723zM613 456h-503v112h503v-112zM0 346h725v-112h-725v112z" />
    <glyph glyph-name="uniF102" unicode="&#xf102;" horiz-adv-x="723" 
d="M0 790h722v-112h-722v112zM334 458v112h389v-112h-389zM334 234v112h389v-112h-389zM29 566q8 -7 90 -72t94 -72q8 -6 7.5 -16t-7.5 -17q-8 -5 -93 -76.5t-91 -74.5q-13 -4 -21 1.5t-8 14.5v296q0 12 10 16t19 0z" />
    <glyph glyph-name="uniF103" unicode="&#xf103;" 
d="M723 790l2 -112h-725v112h723zM723 568l2 -112h-725v112h723zM0 346h725v-112h-725v112z" />
    <glyph glyph-name="uniF104" unicode="&#xf104;" 
d="M669 790v-112h-669v112h669zM557 568v-112h-557v112h557zM0 346h725v-112h-725v112z" />
    <glyph glyph-name="uniF105" unicode="&#xf105;" horiz-adv-x="724" 
d="M4 792h720v-112h-720v112zM340 456v112h384v-112h-384zM340 232v112h384v-112h-384zM197 568q8 5 17 -2.5t6 -19.5v-296q0 -12 -9 -16t-19 0q-4 7 -85 72.5t-99 77.5q-8 8 -8 19t8 15q8 5 94.5 74.5t94.5 75.5zM360 511h3v2h-3v-2z" />
    <glyph glyph-name="uniF106" unicode="&#xf106;" 
d="M54 790h669v-112h-669v112zM166 456v112h557v-112h-557zM0 234v112h725v-112h-725z" />
    <glyph glyph-name="uniF107" unicode="&#xf107;" horiz-adv-x="549" 
d="M498 762v-100h-498v100h498zM398 562v-100h-398v100h398zM0 262v100h549v-100h-549z" />
    <glyph glyph-name="uniF108" unicode="&#xf108;" horiz-adv-x="624" 
d="M538 694l-183 -182l178 -178l91 92v-226h-226l92 91l-178 178l-178 -178l92 -91h-226v226l91 -92l178 178l-183 182l-86 -86v173v0v43h43v0h173l-86 -86l182 -183l182 183l-86 86h173v0h43v-43v0v-173z" />
    <glyph glyph-name="uniF109" unicode="&#xf109;" horiz-adv-x="603" 
d="M531 590q-35 -37 -117 -68q90 -14 141 -58q48 -41 48 -110q0 -75 -62 -122q-65 -43 -203 -43h-338v53q53 0 67.5 14t14.5 62v378q0 48 -14.5 62.5t-67.5 14.5v53l246 9h34q170 0 227 -43q63 -35 63 -110q0 -60 -39 -92zM251 778v0v-1v0v0v0v-1v0v-1v0v-1v0v-1v-1v-1v-1
v-1v-1v-1v-1v-1v-1v-1v-1v-1v-1v-1v-1v-1v-1v-1v-1v-1v-1v-1v-1v-1v-1v-1v-1v-1v-1v-1v-1v-1v-1v-2v-1v-1v-1v-1v-1v-1v-1v-1v-1v-2v-1v-1v-1v-1v-1v-2v-1v-1v-1v-2v-1v-1v-1v-2v-1v-1v-1v-2v-1v-1v-2v-1v-1v-2v-1v-1v-2v-1v-2v-1v-1v-2v-1v-2v-1v-2v-1v-1v-2v-1v-2v-1v-2
v-1v-2v-1v-2v-1v-2v-1v-2v-2v-1v-2v-1v-2v-1v-2v-2v-1v-2v-1v-2v-2v-1v-2v-2v-1v-2v-2v-1v-2v-2v-1v-2v-2v-1v-2v-2v-2v-1v-2v-2v-2v-1v-2v-2v-2v-1v-2v-2v-2v-2v-2v-1v-2v-2v-2v-2v-2v-1v-2v-2v-2v-2v-8h34q45 0 77 24q24 24 24 81q0 44 -15 72q-13 26 -43 34
q-38 10 -77 10zM285 498h-29v-183q0 -29 5 -38q0 -15 19 -24.5t43 -9.5q42 0 67 34q24 40 24 96q0 48 -14 77q-16 33 -38 38q-39 10 -77 10z" />
    <glyph glyph-name="uniF10A" unicode="&#xf10a;" horiz-adv-x="352" 
d="M17 637h316q12 0 16.5 -9.5t0.5 -19.5q-3 -5 -76.5 -104.5t-78.5 -108.5q-5 -8 -17.5 -8t-17.5 8q-3 4 -77.5 103.5t-77.5 109.5q-8 10 -4 19.5t16 9.5z" />
    <glyph glyph-name="uniF10B" unicode="&#xf10b;" horiz-adv-x="795" 
d="M608 699q76 0 131 -55t56 -132q0 -78 -54.5 -132.5t-132.5 -54.5h-136q-18 0 -31 12.5t-13 30.5t13 30.5t31 12.5h136q42 0 71 29.5t29 71.5t-29 71.5t-71 29.5h-136q-18 0 -31 12.5t-13 30.5t13 30.5t31 12.5h136zM187 613q-42 0 -72 -30t-29 -71q0 -42 29.5 -71.5
t71.5 -29.5h136q18 0 30.5 -12.5t12.5 -30.5t-12.5 -30.5t-30.5 -12.5h-136q-78 0 -132.5 55t-54.5 132q0 78 54.5 132.5t132.5 54.5h136q18 0 30.5 -12.5t12.5 -30.5t-12.5 -30.5t-30.5 -12.5h-136zM312 882l48 -82q8 -12 3.5 -27t-18.5 -23q-11 -7 -27.5 -4t-23.5 16
l-49 80q-7 13 -2.5 28.5t18.5 22.5q13 8 28.5 5t22.5 -16zM462 749q-12 7 -16 20.5t3 24.5l50 89q6 12 19.5 15.5t25.5 -4t16 -21t-2 -25.5l-49 -90q-8 -10 -22 -13t-25 4zM509 262l51 -78q7 -13 2 -28.5t-18 -22.5q-13 -9 -28.5 -5.5t-22.5 16.5l-50 80q-8 12 -3.5 27
t17.5 23q12 7 28.5 4t23.5 -16zM341 275q11 -7 15 -20.5t-3 -24.5l-49 -89q-6 -12 -20 -15.5t-25 4.5q-12 7 -16 20.5t2 25.5l49 90q7 10 21.5 13t25.5 -4z" />
    <glyph glyph-name="uniF10C" unicode="&#xf10c;" horiz-adv-x="758" 
d="M379 891q103 0 190.5 -50.5t138 -138t50.5 -190.5t-50.5 -190.5t-138 -138t-190.5 -50.5t-190.5 50.5t-138 138t-50.5 190.5t50.5 190.5t138 138t190.5 50.5zM379 194q132 0 225.5 93t93.5 225t-93.5 225t-225.5 93t-225 -93t-93 -225t93 -225t225 -93z" />
    <glyph glyph-name="uniF10D" unicode="&#xf10d;" horiz-adv-x="594" 
d="M340 513l252 -252q2 -5 0 -8l-36 -36l-3 -2q-1 0 -3 2l-253 252l-254 -254l-3 -1q-2 0 -4 1l-35 37q-2 5 0 8l253 251l-253 253q-2 5 0 8l37 37q2 1 3.5 1t2.5 -1l253 -253l253 253q2 1 3.5 1t2.5 -1l37 -36q3 -5 0 -8z" />
    <glyph glyph-name="uniF10E" unicode="&#xf10e;" horiz-adv-x="949" 
d="M0 474v45l286 160v-70l-211 -112l211 -112v-71zM335 249l201 526h75l-201 -526h-75zM662 681l287 -154v-51l-287 -160v70l212 112l-212 112v71z" />
    <glyph glyph-name="uniF10F" unicode="&#xf10f;" horiz-adv-x="671" 
d="M575 842q58 0 80 -21t15 -74l-141 -470q-8 -42 -33 -68.5t-62 -26.5h-358q-27 0 -44 6t-24 13.5t-7.5 22.5t2 24.5l7.5 28.5l141 470q23 95 95 95h329zM434 253l56 198h-353l-56 -198h353z" />
    <glyph glyph-name="uniF110" unicode="&#xf110;" horiz-adv-x="680" 
d="M382 354v0v0v0v0h-1v0h-1v0h-1v0h-1h-1h-1h-1h-1h-1h-1h-1h-1h-1h-1h-1h-1h-1h-1h-1h-1h-1h-1h-1h-1h-1h-1h-1h-1h-1h-1h-1h-1h-1h-1h-1h-1h-1h-1h-2h-1h-1h-1h-1h-1h-1h-1h-2h-1h-1h-1h-1h-2h-1h-1h-1h-1h-2h-1h-1h-2h-1h-1h-1h-2h-1h-1h-2h-1h-1h-2h-1h-2h-1h-1h-2h-1
h-2h-1h-1h-2h-1h-2h-1h-2h-1h-2h-1h-2h-1h-2h-1h-2h-1h-2h-1h-2h-2h-1h-2h-1h-2h-1h-2h-2h-1h-2h-2h-1h-2h-2h-1h-2h-2h-1h-2h-2h-1h-2h-2h-1h-2h-2h-2h-1h-2h-2h-2h-1h-2h-2h-2h-2h-1h-2h-2h-2h-2h-1h-2h-2h-2h-2h-9l-13 -34q-15 -36 -15 -50q0 -24 16 -33q17 -10 53 -10
v-54h-219v54q62 0 106 107l204 517h58l208 -513q32 -77 56 -92q23 -16 48 -16v-54h-330v54q48 0 56 8q12 9 12 23q0 11 -10 30l-6 15zM277 608l-79 -198h162z" />
    <glyph glyph-name="uniF111" unicode="&#xf111;" horiz-adv-x="851" 
d="M762 848q37 0 63 -26t26 -64v-492q0 -38 -26 -64t-63 -26h-672q-38 0 -64 26t-26 64v492q0 38 26 64t64 26h672zM166 803q-64 0 -83 -6l50 -50l1 -1q26 11 45 11h491q26 0 44 -11l1 2t2 2l48 48q-16 5 -80 5h-519zM133 365q0 -33 20.5 -44.5t60.5 -11.5h416q41 0 63 11
t22 43v311q0 8 -2 14.5t-4.5 11t-8.5 7.5t-9.5 4.5t-13 2t-14 0.5h-16.5h-17h-416h-16.5h-16t-13 -0.5t-12.5 -2t-9.5 -4.5t-7.5 -7.5t-4 -11t-2 -14.5v-309zM45 747v-414q0 -48 11 -71l46 47h2q-14 21 -14 48v313q0 22 14 48h-2l-52 53q-5 -9 -5 -24zM685 221q53 0 78 6
l-45 45q0 1 -1 2.5t-2 2.5q-22 -11 -43 -11h-493q-27 0 -45 11l-1 -2l-45 -45q23 -9 78 -9h519zM805 331v415q0 14 -5 24l-51 -52q-1 0 -2 -0.5l-1 -0.5q14 -19 14 -48v-315q0 -27 -14 -48q1 0 3 -2l46 -45q10 24 10 72z" />
    <glyph glyph-name="uniF112" unicode="&#xf112;" horiz-adv-x="438" 
d="M179 842v4h259l-14 -44q-16 0 -35 -10q-16 -18 -19 -26q-7 -12 -15 -44l-125 -410q-9 -38 -9 -45q0 -29 19 -35q29 -10 50 -10l-15 -44h-275l14 44q37 0 50 20q20 26 26 54l124 410q2 10 4.5 20t4 15t1.5 9q0 12 -6 22t-13 14q-29 9 -40 9z" />
    <glyph glyph-name="uniF113" unicode="&#xf113;" horiz-adv-x="859" 
d="M658 710q84 0 142.5 -57.5t58.5 -140.5t-59.5 -142.5t-141.5 -59.5h-148q-18 0 -31 13.5t-13 31.5t12.5 31.5t31.5 13.5h148q44 0 77 33t33 77q0 45 -32.5 78t-77.5 33h-148q-18 0 -31 13.5t-13 31.5t12.5 31t31.5 13h148zM349 403q18 0 32 -15t13 -33q0 -18 -13 -31.5
t-32 -13.5h-147q-83 0 -142.5 59.5t-59.5 142.5t59.5 142.5t142.5 59.5h147q18 0 31.5 -13.5t13.5 -31.5t-13 -31.5t-32 -13.5h-147q-45 0 -78 -33t-33 -77q0 -45 32.5 -78t78.5 -33h147zM269 504q0 19 13 32t32 13h236q19 0 32 -13t13 -32q0 -18 -13 -31.5t-32 -13.5h-236
q-19 0 -32 13t-13 32z" />
    <glyph glyph-name="uniF114" unicode="&#xf114;" horiz-adv-x="904" 
d="M800 810l-96 -96l-39 39l96 96zM759 565h145v-52h-145v52zM669 271l38 39l96 -96l-38 -39zM256 749l-38 -32l-96 96l38 32zM469 953v-148h-53v148h53zM0 190l338 337l118 -118l-338 -338zM375 565l123 124l118 -119l-123 -123z" />
    <glyph glyph-name="uniF115" unicode="&#xf115;" horiz-adv-x="766" 
d="M274 194l-274 273v7l109 102l166 -166l383 420l108 -102v-6l-492 -528v0z" />
    <glyph glyph-name="uniF116" unicode="&#xf116;" horiz-adv-x="472" 
d="M0 583h472v-142h-472v142z" />
    <glyph glyph-name="uniF117" unicode="&#xf117;" horiz-adv-x="738" 
d="M238 743h500v-91h-500v91zM737 561v-91h-499v91h499zM238 290v92h500v-92h-500zM58 548l-2 127h-45v27q21 -3 36 7t19 30h32v-191h-40zM134 412q0 -26 -16 -42.5t-39 -30t-31 -26.5h93v-32h-141q0 22 9.5 39t18.5 24.5t31 22.5q40 18 40 45t-27 27q-15 0 -23.5 -14.5
t-8.5 -30.5h-37q-3 34 15.5 55.5t51.5 21.5q26 0 45 -16.5t19 -42.5z" />
    <glyph glyph-name="uniF118" unicode="&#xf118;" horiz-adv-x="720" 
d="M85 469l400 403l235 -237l-400 -403l-320 -80zM600 635l-118 117l-324 -326l-22 -95l43 -43l98 21z" />
    <glyph glyph-name="uniF119" unicode="&#xf119;" horiz-adv-x="784" 
d="M573 566q-31 0 -49.5 17t-14.5 43q0 23 19.5 41t44.5 18q26 0 45 -17t19 -42q0 -23 -19.5 -41.5t-44.5 -18.5zM0 832h784v-640h-784v640zM728 240v544h-672v-544h672zM166 296q-7 0 -17.5 -0.5t-16.5 -0.5t-13 0.5t-10.5 1.5t-7 2.5t-4.5 5t-1 8t2 11t6 15.5l96 189
q18 33 47.5 35t54.5 -30l93 -133l24 53q18 35 47 36t51 -31l88 -128q12 -18 13 -25.5t-5.5 -8.5t-28.5 -1q-17 1 -27 1h-391z" />
    <glyph glyph-name="uniF11A" unicode="&#xf11a;" horiz-adv-x="666" 
d="M374 512l288 -291q2 0 2 -2t-2 -5l-34 -33h-3h-3l-290 289l-288 -291h-3h-3l-34 37q-6 0 0 6l290 290l-292 288q-6 6 0 6l34 37h3h3l290 -289l288 291h3h3l37 -37q7 0 0 -6z" />
    <glyph glyph-name="uniF11B" unicode="&#xf11b;" horiz-adv-x="434" 
d="M158 193v123h128v-123h-128zM0 630q7 120 83 166q42 35 123 35q96 0 164 -43q64 -41 64 -138q0 -56 -29 -92q-9 -14 -64 -60l-29 -24q-27 -12 -35 -44q-5 -10 -5 -50h-118q1 13 2.5 34t2.5 30.5t3.5 21t5.5 18.5q13 25 59 64l29 24q16 8 24 24q19 26 19 54q0 34 -19 60
q-16 24 -69 24q-47 0 -69 -36q-19 -25 -19 -68h-123z" />
    <glyph glyph-name="uniF11C" unicode="&#xf11c;" horiz-adv-x="780" 
d="M53 319q-40 68 -49.5 144.5t9 147t65.5 133t114 102.5q129 72 271 44t232 -140l85 46l-42 -211l-205 69l91 51q-69 84 -179.5 103t-207.5 -36q-54 -30 -91.5 -79t-52.5 -104.5t-7.5 -116t39.5 -113.5q43 -71 114.5 -111.5t150.5 -40.5t156 40q73 42 117 117l73 -32
q-9 -13 -24.5 -33.5t-55.5 -62t-70 -57.5q-68 -40 -146 -49t-149.5 9.5t-134.5 65.5t-103 114z" />
    <glyph glyph-name="uniF11D" unicode="&#xf11d;" horiz-adv-x="602" 
d="M490 464q-21 20 -16 45q0 29 17 46q17 19 45 19q26 0 46 -17t20 -46.5t-20 -46.5q-20 -18 -48 -18q-24 0 -44 18zM21 464q-19 18 -21 45q0 26 18 46q19 19 48 19q24 0 44 -17t20 -47q0 -28 -18 -46t-45 -18q-26 0 -46 18zM245 725q-7 16 -5 25q0 29 18 47q19 19 48 19
q25 0 44.5 -19t19.5 -47q0 -26 -18 -46q-17 -19 -46 -19q-14 0 -26 5q-11 4 -21 14t-14 21zM259 226q-21 19 -19 48q0 27 18 44q20 18 48 18q24 0 44 -18q20 -16 20 -44q0 -33 -18 -48q-20 -18 -46.5 -18t-46.5 18zM560 810l38 -39l-259 -257l259 -260l-38 -38l-259 259
l-259 -259l-39 38l259 260l-259 257l39 39l259 -258z" />
    <glyph glyph-name="uniF11E" unicode="&#xf11e;" horiz-adv-x="811" 
d="M621 870q79 0 135 -56.5t55 -135.5v-334q0 -79 -55.5 -134.5t-134.5 -55.5h-431q-79 0 -134.5 55.5t-55.5 134.5v334q0 80 56.5 136t135.5 56h429zM765 392v240q0 79 -55.5 134.5t-135.5 55.5h-334q-79 0 -134.5 -55.5t-55.5 -134.5v-240q0 -79 55.5 -134.5t134.5 -55.5
h334q80 0 135.5 55.5t55.5 134.5z" />
    <glyph glyph-name="uniF11F" unicode="&#xf11f;" horiz-adv-x="651" 
d="M371 424h202q14 -34 14 -69q0 -52 -28 -93q-27 -43 -79 -65q-45 -24 -109 -24q-36 0 -73 8q-26 5 -74 22q-46 13 -56 13q-6 0 -8.5 -1t-7 -5.5l-6.5 -6.5q-15 -9 -19 -29h-32v224h32q3 -9 10.5 -31t14.5 -35.5t18 -25.5q38 -41 78 -61q45 -23 90 -23q32 0 61 13
q30 17 41 34q15 21 15 48q0 44 -37 78q-6 7 -23 16t-24 13zM626 563q19 0 25 -19v-48q0 -11 -7 -17.5t-17 -6.5h-603q-11 0 -17.5 7t-6.5 17v48q0 11 7 17.5t17 6.5h112l-5 5q-51 46 -51 113q0 31 18 66q14 31 43 53q27 22 65 33q41 13 84 13q33 0 57 -5q8 -1 53 -12
q10 -3 25.5 -7.5t20.5 -5.5q7 -2 15.5 -7.5t12.5 -5.5q23 0 36 37h48v-203h-43q-16 45 -53 84q-31 34 -73 56q-47 20 -83 20q-47 0 -74 -22.5t-27 -56.5q0 -32 27 -57q13 -13 61 -37q16 -9 45 -23.5t40 -19.5q7 -4 20.5 -11.5t20.5 -11.5h207z" />
    <glyph glyph-name="uniF120" unicode="&#xf120;" horiz-adv-x="786" 
d="M496 320q18 -30 53 -29h37v-64h-167l-126 200l-127 -200h-166v64h37q36 0 54 29l130 204l-127 186q-17 27 -52 27h-34v64h155l131 -190l130 190h155v-64h-33q-36 0 -53 -27l-127 -186zM717 177h69v-46h-146v33q6 6 17.5 16.5t16.5 15t13.5 12.5t12.5 12t9.5 10.5t8 10.5
t5.5 9t4 9.5t1 8.5q0 26 -27 26q-20 0 -43 -18l-16 40q26 23 67 23q32 0 52 -18t20 -48q0 -27 -17 -49t-47 -47z" />
    <glyph glyph-name="uniF121" unicode="&#xf121;" horiz-adv-x="797" 
d="M797 680v-43h-143v32q6 5 17.5 15t16 14.5t13 12.5t12.5 12t9.5 10.5t8 10.5t5.5 9t4 9.5t1 8.5q0 24 -27 24q-19 0 -42 -17l-16 38q29 22 67 22q32 0 51.5 -17.5t19.5 -46.5q0 -25 -17 -47.5t-46 -46.5h66zM578 274v-64h-165l-125 196l-125 -196h-163v64h35q35 0 53 28
l128 202l-123 182q-19 28 -53 28h-34v64h154l128 -188l128 188h154v-64h-34q-33 0 -53 -28l-123 -182l128 -202q18 -28 53 -28h37z" />
    <glyph glyph-name="uniF122" unicode="&#xf122;" horiz-adv-x="778" 
d="M0 196v632h778v-632h-778zM534 780v-146h196v146h-196zM534 586v-145h196v145h-196zM534 391v-145h196v145h-196zM291 780v-146h195v146h-195zM291 586v-145h195v145h-195zM291 391v-145h195v145h-195zM48 780v-533h195v146h-195v48h195v145h-195v48h195v146h-195z" />
    <glyph glyph-name="uniF123" unicode="&#xf123;" horiz-adv-x="942" 
d="M0 658v189h664v-190h-54q-13 73 -45 105q-31 26 -90 26h-54v-471q0 -51 14 -65q15 -21 66 -21h14v-54h-365v54h15q45 0 65 21q15 24 15 65v471h-55q-46 0 -75 -10q-28 -18 -40 -45q-21 -38 -21 -75h-54zM845 738h-3v-449h100l-124 -101l-125 101h101v449h-95l120 101
l120 -101h-94z" />
    <glyph glyph-name="uniF124" unicode="&#xf124;" horiz-adv-x="688" 
d="M688 808v-50h-688v50h214q21 0 34.5 14.5t13.5 33.5h159q0 -20 14 -34t34 -14h219zM638 709l-97 -541h-394l-97 541h588zM208 622q0 12 -8.5 20.5t-20.5 8.5t-20.5 -8.5t-8.5 -20.5l50 -366q0 -12 8.5 -20.5t20.5 -8.5t20.5 8.5t8.5 20.5zM373 622q0 12 -8.5 20.5
t-20.5 8.5t-20.5 -8.5t-8.5 -20.5v-366q0 -12 8.5 -20.5t20.5 -8.5t20.5 8.5t8.5 20.5v366zM530 622q0 12 -8.5 20.5t-20.5 8.5t-20.5 -8.5t-8.5 -20.5l-43 -366q0 -12 8.5 -20.5t20.5 -8.5t20 8.5t8 20.5z" />
    <glyph glyph-name="uniF125" unicode="&#xf125;" horiz-adv-x="664" 
d="M35 168v50h591v-50h-591zM429 853v3h235v-50q-11 0 -40 -9q-22 -7 -29 -29q-9 -29 -9 -54v-196q0 -56 -10 -104q-6 -35 -40 -78q-30 -37 -83 -59q-59 -24 -119 -24q-64 0 -123 24q-56 21 -83 54q-33 38 -40 74q-10 48 -10 93v232q0 44 -14 58.5t-64 14.5v50h310v-50h-9
q-45 0 -59.5 -14.5t-14.5 -54.5v-230q0 -51 10 -99q8 -42 45 -64q40 -24 83 -24q57 0 93 29q31 17 49 64q10 51 10 108v197q0 88 -88 88v50z" />
    <glyph glyph-name="uniF126" unicode="&#xf126;" horiz-adv-x="781" 
d="M586 845q68 -39 115 -101.5t66.5 -132.5t10 -146.5t-49.5 -144t-103 -114t-134.5 -65.5t-149.5 -10t-146 49q-29 16 -66.5 54.5t-60.5 68.5l-23 30l73 32q41 -71 117 -117q78 -39 156.5 -39t150 40.5t114.5 110.5q32 53 39.5 113t-8 115.5t-52.5 104.5t-91 80
q-99 55 -208.5 36t-180.5 -103l91 -53l-204 -69l-42 212l83 -47q90 111 232 139t271 -43z" />
    <glyph glyph-name="uniF127" unicode="&#xf127;" horiz-adv-x="702" 
d="M187 745h515v-94h-515v94zM702 558v-95h-515v95h515zM187 278v94h515v-94h-515zM0 652v94h94v-94h-94zM93 558h1v-95h-94v95h93zM0 278v94h94v-94h-94z" />
    <glyph glyph-name="uniF128" unicode="&#xf128;" horiz-adv-x="730" 
d="M683 705q19 0 33 -14.5t14 -32.5v-292q0 -20 -14 -33.5t-33 -13.5h-419q-19 0 -32.5 13.5t-13.5 33.5v292q0 20 13.5 33.5t32.5 13.5h419zM0 367v288l187 -80v-128z" />
  </font>
</defs>
</svg>
